<?xml version="1.0" standalone="no"?>
<!DOCTYPE svg PUBLIC "-//W3C//DTD SVG 20010904//EN"
 "http://www.w3.org/TR/2001/REC-SVG-20010904/DTD/svg10.dtd">
<svg version="1.0" xmlns="http://www.w3.org/2000/svg"
 width="766.000000pt" height="766.000000pt" viewBox="0 0 766.000000 766.000000"
 preserveAspectRatio="xMidYMid meet">
<metadata>
Created by potrace 1.14, written by Peter Selinger 2001-2017
</metadata>
<g transform="translate(0.000000,766.000000) scale(0.100000,-0.100000)"
fill="#000000" stroke="none">
<path d="M162 7645 c-17 -8 -47 -25 -65 -39 -17 -13 -44 -29 -60 -35 -15 -6
-27 -16 -27 -22 0 -7 7 -8 17 -4 50 21 101 32 112 25 22 -13 7 -44 -24 -53
-57 -17 -96 -37 -102 -52 -10 -27 3 -27 63 -2 73 30 183 51 233 44 52 -7 181
-65 208 -93 12 -13 30 -24 40 -24 40 1 147 19 152 27 20 28 91 68 131 74 25 4
63 13 85 20 58 17 102 15 175 -11 94 -33 94 -33 109 -81 8 -24 18 -54 24 -66
5 -12 7 -37 3 -55 -6 -34 -6 -34 24 -30 33 5 52 -20 31 -41 -6 -6 -11 -19 -11
-29 0 -10 -13 -32 -29 -50 -25 -29 -31 -31 -46 -18 -9 7 -14 22 -12 31 3 10 0
20 -7 23 -6 2 -1 5 11 5 12 1 25 6 29 13 4 6 3 8 -3 5 -17 -10 -26 42 -11 61
12 13 10 14 -9 3 -13 -6 -23 -16 -23 -22 0 -15 -22 -35 -47 -43 -40 -13 -98
-63 -120 -105 -21 -39 -21 -41 -3 -31 16 8 20 7 20 -4 0 -13 -39 -44 -48 -37
-9 7 -30 -19 -41 -48 -8 -27 -8 -36 1 -42 8 -5 7 -12 -5 -24 -10 -9 -17 -21
-17 -26 0 -6 -4 -8 -9 -4 -6 3 -15 -5 -22 -17 -7 -13 -15 -25 -19 -28 -15 -10
-49 -84 -43 -93 3 -6 1 -7 -5 -4 -5 4 -22 -8 -37 -25 -15 -18 -49 -57 -76 -86
-27 -29 -49 -60 -50 -70 0 -10 -3 -12 -6 -5 -3 10 -9 9 -20 -3 -13 -13 -14
-17 -3 -24 11 -7 10 -11 -3 -24 -8 -9 -21 -16 -27 -16 -6 0 -24 -12 -39 -27
-16 -16 -46 -44 -68 -64 -21 -19 -45 -46 -53 -59 -8 -12 -21 -28 -27 -36 -7
-7 -13 -16 -13 -21 0 -7 -30 -45 -77 -98 -10 -11 -34 -44 -53 -72 -30 -45 -40
-53 -67 -53 -18 0 -33 5 -33 10 0 6 -14 10 -31 10 -30 0 -31 -2 -25 -30 l6
-30 -55 0 -55 0 0 -130 c0 -130 0 -131 21 -120 23 13 69 5 69 -11 0 -5 11 -21
24 -34 14 -13 27 -34 31 -45 5 -15 15 -20 40 -20 33 0 49 -17 36 -38 -5 -8
-17 -9 -44 -1 -21 5 -41 7 -46 4 -5 -3 -8 8 -6 24 4 33 -22 71 -49 71 -9 0
-16 5 -16 10 0 6 -13 10 -30 10 -30 0 -30 0 -30 -56 0 -34 4 -53 10 -49 6 3
10 1 10 -4 0 -6 -4 -11 -9 -11 -6 0 -10 -531 -11 -1370 -1 -1440 -2 -1410 42
-1410 19 0 22 -7 65 -195 26 -111 28 -136 29 -340 0 -209 8 -275 34 -310 4 -5
11 -26 15 -45 3 -19 9 -44 11 -55 4 -16 1 -14 -16 8 -28 35 -50 35 -50 0 0
-25 -2 -23 -30 20 -16 26 -30 50 -30 53 0 4 -11 19 -25 36 -14 16 -25 38 -25
48 0 10 -4 22 -10 25 -7 4 -10 -345 -10 -1040 l0 -1045 443 2 c477 3 444 -1
429 52 -3 13 -1 17 6 12 7 -4 12 -15 12 -25 0 -20 27 -48 36 -38 3 3 1 14 -4
24 -12 21 1 53 22 53 20 0 46 -34 46 -59 l0 -22 340 2 c187 1 340 6 340 11 0
4 -4 8 -10 8 -5 0 -10 5 -10 10 0 6 7 10 15 10 8 0 15 -4 15 -10 0 -5 6 -10
14 -10 8 0 16 -6 19 -12 2 -7 8 -10 12 -5 19 17 -42 228 -75 257 -12 11 -3 53
16 75 12 13 24 31 27 39 4 9 16 16 27 16 19 0 21 -4 15 -30 -4 -19 -2 -36 5
-45 8 -9 8 -15 2 -15 -5 0 -8 -9 -5 -20 3 -11 9 -20 12 -20 4 0 22 -20 40 -45
23 -32 39 -45 57 -45 26 0 33 -16 9 -22 -11 -2 -8 -13 15 -47 29 -43 38 -75
22 -84 -4 -2 -2 -2 5 -1 7 2 15 -1 18 -6 4 -6 49 -10 101 -10 86 0 94 2 94 19
0 10 -25 44 -55 74 -56 56 -67 77 -40 77 8 0 15 -4 15 -10 0 -14 27 -12 34 3
5 9 7 9 12 0 3 -7 14 -13 23 -13 10 0 23 -11 29 -25 14 -30 15 -38 4 -31 -4 2
-13 1 -20 -3 -9 -5 -8 -17 5 -49 l16 -42 102 0 c107 0 135 10 121 45 -3 8 -1
15 4 15 5 0 11 -9 15 -19 3 -11 17 -21 33 -23 24 -3 27 -1 26 21 0 16 -9 28
-25 34 l-24 10 30 6 c28 6 29 7 10 19 -30 17 -9 14 27 -4 42 -22 58 -4 22 25
l-27 21 32 0 32 0 -15 29 c-9 16 -26 42 -39 57 -13 16 -32 61 -41 99 -10 39
-22 78 -27 87 -5 10 -9 27 -9 39 0 17 -5 20 -21 16 -15 -4 -19 -2 -15 9 3 8 3
21 0 29 -5 11 -11 12 -26 4 -27 -14 -48 5 -48 45 0 21 -3 27 -9 17 -5 -7 -13
-11 -19 -7 -6 3 -15 -2 -21 -11 -9 -16 -11 -15 -20 8 -5 15 -13 44 -17 65 -8
49 -20 64 -50 64 -18 0 -24 -6 -24 -22 0 -13 -4 -18 -8 -12 -4 6 -15 13 -24
17 -14 5 -18 1 -18 -18 0 -13 4 -26 9 -30 16 -9 43 -103 36 -125 -10 -30 -43
-25 -51 8 -4 15 -15 45 -25 67 -26 57 -23 75 5 36 14 -18 22 -39 20 -46 -3 -7
0 -16 7 -20 14 -9 8 30 -14 90 -16 41 -37 59 -37 30 0 -14 -3 -13 -18 6 -15
18 -30 23 -73 25 -30 1 -61 4 -69 7 -8 4 -26 6 -40 5 -79 -5 -287 40 -331 71
-46 33 -139 170 -139 207 0 11 -6 14 -20 9 -11 -3 -20 -2 -20 3 0 6 5 12 12
14 21 7 -118 248 -144 248 -5 0 -17 20 -28 44 -19 46 -18 45 -153 113 -27 13
-51 32 -54 41 -3 9 -11 31 -19 49 -8 17 -14 37 -14 44 0 25 62 107 90 119 16
6 36 20 46 31 9 10 22 19 29 19 7 0 20 9 30 20 17 19 16 22 -29 98 -25 43 -46
82 -46 86 0 5 -8 20 -19 34 -10 15 -24 45 -31 67 -7 22 -23 63 -35 90 -13 28
-41 111 -64 185 -23 74 -56 182 -75 240 -141 432 -175 541 -180 584 -11 86
-79 286 -98 286 -11 0 -10 -37 1 -45 6 -3 13 -27 17 -53 4 -26 11 -58 16 -71
7 -20 38 -223 38 -253 0 -4 -7 -8 -15 -8 -9 0 -15 9 -15 24 0 17 -9 29 -30 40
-28 13 -30 13 -30 -4 0 -10 4 -21 9 -24 12 -8 19 -52 10 -67 -5 -9 -10 -3 -14
17 -13 56 -37 124 -46 129 -5 4 -9 19 -9 34 0 16 -7 45 -15 64 -10 26 -15 72
-15 155 0 90 -3 122 -14 131 -8 7 -20 32 -27 56 -12 41 -16 45 -46 45 -24 0
-33 4 -33 17 0 9 3 13 7 10 3 -4 12 -2 20 4 9 9 13 8 13 0 0 -6 4 -11 9 -11
28 0 -38 264 -99 394 -47 99 -59 140 -80 262 -8 50 -8 66 5 90 8 16 15 41 15
57 0 15 2 27 5 27 14 0 75 -71 70 -81 -12 -19 17 -39 56 -39 37 0 39 1 39 33
0 24 -3 28 -10 17 -7 -11 -12 -12 -18 -4 -4 7 -16 13 -27 15 -14 3 -21 14 -23
38 -5 46 6 53 50 33 64 -30 78 -49 78 -106 0 -85 17 -89 26 -6 6 61 9 70 16
50 5 -14 7 -50 3 -80 -18 -166 -17 -190 4 -240 25 -58 25 -60 6 -60 -8 0 -15
6 -15 13 0 8 -4 7 -10 -3 -6 -8 -8 -34 -5 -57 13 -114 17 -133 24 -133 8 0 23
62 26 108 0 13 5 26 10 30 22 16 64 118 59 140 -5 16 0 28 17 44 16 14 20 22
12 25 -30 11 -9 23 30 17 31 -4 38 -3 27 5 -13 9 -11 11 7 11 30 0 54 11 47
21 -3 5 -14 9 -24 9 -10 0 -22 5 -26 11 -4 8 1 9 16 4 15 -5 20 -4 16 4 -4 6
-17 11 -30 11 -22 0 -46 17 -46 32 0 4 16 8 35 8 23 0 35 -5 35 -14 0 -13 19
-26 50 -32 21 -4 41 16 35 37 -3 9 -1 20 5 24 5 3 10 -1 10 -9 0 -9 4 -16 9
-16 4 0 51 42 103 94 144 141 187 244 147 356 -22 64 -24 66 -44 50 -12 -10
-21 -10 -39 -2 -25 11 -96 -1 -96 -16 0 -4 -23 -9 -52 -10 -29 -1 -55 -7 -59
-13 -4 -8 -9 -7 -15 4 -5 8 -18 16 -28 18 -18 4 -19 5 -3 21 9 9 17 26 17 37
0 24 -35 93 -42 85 -3 -3 -8 2 -11 10 -4 10 -1 13 8 10 22 -9 40 70 40 179 0
87 -2 100 -20 113 -15 11 -17 17 -7 23 8 5 11 17 7 32 -3 13 -7 49 -10 79 -8
103 -22 172 -36 181 -12 8 -12 10 1 18 8 6 12 13 8 16 -4 4 -13 -4 -21 -17
-12 -19 -13 -37 -4 -101 8 -57 7 -87 -1 -110 -6 -18 -14 -70 -18 -117 -4 -47
-11 -90 -16 -97 -9 -11 15 -72 34 -84 13 -8 12 -129 -1 -142 -8 -8 -17 -8 -29
-1 -9 5 -25 8 -34 6 -15 -3 -16 -11 -11 -48 4 -30 2 -44 -6 -44 -6 0 -11 -12
-11 -26 0 -38 -17 -20 -25 27 -5 26 -10 37 -15 29 -5 -7 -9 6 -11 34 -4 48 5
61 16 25 4 -11 9 -19 11 -16 3 2 -6 26 -20 53 -13 27 -29 75 -36 106 -6 31
-18 62 -26 68 -12 11 -14 4 -15 -41 l-1 -54 -8 48 c-5 27 -16 57 -24 66 -9 10
-16 23 -16 29 0 7 -9 12 -20 12 -11 0 -20 5 -20 10 0 6 -9 10 -20 10 -11 0
-20 -4 -20 -10 0 -5 -15 -10 -32 -11 -47 -1 -92 -56 -83 -99 4 -16 10 -30 15
-30 5 0 12 -9 15 -20 3 -11 13 -20 21 -20 8 0 14 -4 14 -10 0 -17 57 -12 64 6
13 35 7 44 -33 44 -38 0 -68 19 -43 28 7 2 12 10 12 18 0 10 12 14 39 14 39 0
40 -1 49 -42 6 -24 10 -35 11 -25 1 9 8 17 16 17 21 0 19 -20 -6 -41 -12 -10
-19 -23 -17 -30 3 -8 9 -6 21 5 16 16 17 14 17 -44 0 -34 -4 -59 -8 -56 -5 3
-7 -18 -5 -47 l5 -52 -24 32 c-28 40 -58 44 -58 8 0 -33 -16 -32 -25 3 -19 79
-37 132 -46 132 -5 0 -9 -7 -9 -15 0 -9 -9 -15 -21 -15 -16 0 -19 -4 -14 -17
4 -10 11 -42 16 -72 9 -56 1 -81 -27 -81 -14 0 -19 13 -30 73 -4 24 -10 34
-14 27 -5 -8 -10 0 -15 21 -4 19 -12 39 -17 46 -6 7 2 35 23 80 32 66 32 72
34 213 1 118 5 152 20 182 18 36 15 70 -10 131 -6 14 -2 17 29 17 20 0 36 -4
36 -10 0 -5 9 -10 20 -10 11 0 20 5 20 10 0 6 -9 10 -20 10 -23 0 -26 10 -8
28 13 13 29 16 27 5 -1 -5 -1 -15 0 -23 1 -13 3 -13 12 0 9 12 10 12 5 -3 -3
-10 -6 -25 -6 -33 0 -8 -7 -14 -15 -14 -8 0 -15 -4 -15 -10 0 -5 5 -10 10 -10
6 0 8 -29 5 -77 -2 -45 -1 -72 4 -64 5 8 7 -4 4 -31 -5 -44 -5 -46 41 -77 57
-38 94 -40 126 -7 17 19 21 31 16 53 -20 78 -19 91 6 98 12 4 26 12 29 17 4 6
20 3 40 -8 30 -15 32 -15 21 -1 -8 9 -23 19 -33 22 -15 5 -17 10 -9 20 7 9 7
21 0 40 -6 15 -7 31 -4 37 4 6 0 14 -7 19 -16 10 -12 15 21 23 14 3 19 3 12 0
-16 -8 -15 -24 2 -24 7 0 19 -13 26 -30 16 -39 36 -38 44 1 13 67 9 80 -34 96
-22 9 -40 22 -40 30 0 19 -17 16 -25 -4 -6 -17 -7 -17 -21 1 -20 29 -17 72 7
95 20 18 34 20 183 18 l161 -2 7 30 7 30 -3 -32 -3 -33 141 0 141 0 24 53 c14
28 24 64 23 80 -2 16 3 27 10 27 7 0 0 11 -16 24 -17 13 -38 21 -48 18 -10 -2
-18 1 -18 8 0 16 -26 40 -44 40 -9 0 -16 -4 -16 -10 0 -5 -9 -10 -20 -10 -11
0 -20 -4 -20 -10 0 -5 5 -10 10 -10 7 0 7 -7 0 -21 -7 -11 -9 -32 -6 -45 5
-17 2 -24 -8 -24 -8 0 -17 6 -19 13 -4 10 -6 10 -6 0 -2 -21 -17 -15 -29 12
-7 15 -20 25 -32 25 -29 0 -62 19 -55 31 9 14 -5 49 -20 49 -16 0 -30 33 -16
38 6 2 11 12 11 23 0 25 -31 25 -50 -1 -12 -16 -26 -20 -78 -20 -54 0 -63 2
-58 16 3 9 6 18 6 20 0 2 15 4 34 4 19 0 37 4 41 9 8 14 -16 61 -31 61 -7 0
-15 6 -18 13 -6 13 4 -29 11 -50 3 -7 -7 -15 -22 -19 -19 -5 -30 -1 -41 12 -9
11 -13 14 -10 7 9 -17 -11 -26 -21 -10 -4 8 -15 17 -23 20 -12 4 -11 6 3 6 9
1 17 6 17 11 0 6 15 10 33 10 l32 0 -3 76 c-5 80 17 154 45 154 7 0 13 9 13
19 0 11 5 23 10 26 6 3 10 14 10 24 0 16 8 29 50 78 5 7 10 19 10 28 0 19 56
21 64 3 3 -7 3 -3 0 10 -5 19 -1 22 23 23 15 0 22 3 16 6 -16 6 -17 35 -1 51
15 15 32 16 23 2 -12 -19 6 -10 103 54 58 39 104 77 114 96 10 17 30 36 46 43
16 7 27 17 25 24 -7 21 16 24 27 3 8 -15 21 -20 49 -20 21 0 40 3 44 6 10 10
-17 32 -33 27 -8 -3 -4 5 10 17 14 12 19 19 13 15 -8 -4 -11 -1 -7 8 5 13 33
26 55 27 4 0 9 -14 13 -31 3 -17 10 -28 16 -24 6 4 8 11 5 16 -4 5 -1 9 6 9 6
0 9 8 6 20 -3 13 1 21 13 25 10 3 24 13 32 22 11 14 10 15 -12 8 -24 -7 -24
-7 -7 12 9 11 17 31 17 45 0 23 4 26 39 26 27 1 38 -3 36 -11 -7 -20 18 -43
53 -50 25 -5 37 -2 52 13 17 17 27 40 17 40 -2 0 -18 -7 -36 -16 -17 -8 -37
-13 -44 -10 -7 3 -3 8 11 12 15 4 21 12 18 21 -3 8 -6 18 -6 23 0 5 -8 11 -17
14 -13 3 -11 4 4 3 12 -1 43 14 70 35 l48 36 117 4 c64 1 114 1 111 -2 -8 -9
122 -26 133 -18 6 5 26 5 43 2 22 -5 28 -9 20 -15 -20 -12 -8 -18 22 -12 20 4
25 9 22 24 -3 10 0 19 6 19 11 0 15 -13 12 -37 -1 -7 10 -20 24 -29 14 -9 24
-23 21 -30 -3 -9 2 -14 15 -14 30 0 59 -18 59 -38 0 -13 2 -14 9 -3 13 20 81
-6 81 -32 0 -10 5 -15 10 -12 6 4 8 11 5 16 -4 5 0 9 7 9 7 0 34 11 60 25 59
31 61 31 53 -4 -5 -25 -3 -30 25 -39 16 -6 33 -18 36 -26 6 -15 -22 -49 -47
-59 -8 -3 0 -6 18 -6 22 -1 39 -10 56 -30 13 -16 32 -31 42 -32 17 -4 54 -59
90 -134 12 -26 12 -31 -1 -41 -12 -10 -11 -13 10 -18 54 -13 113 40 103 93
-15 72 -24 96 -37 97 -8 1 -20 2 -25 2 -6 1 -22 23 -35 50 -14 26 -35 60 -47
75 -13 16 -23 33 -23 39 0 20 84 -38 101 -71 36 -69 101 -117 133 -99 11 6 22
6 31 -2 19 -16 10 -30 -21 -30 -13 0 -24 -2 -24 -5 0 -19 32 -63 48 -67 17 -5
20 2 25 61 l6 66 -67 64 c-37 35 -78 70 -92 79 -73 45 -135 88 -139 95 -3 9
-66 52 -119 82 -37 21 -90 95 -91 128 -1 9 -7 27 -13 38 -11 18 -10 23 10 36
19 13 22 24 22 74 l0 59 33 0 c38 0 57 15 57 46 0 17 -5 21 -19 17 -43 -11
-88 46 -53 67 12 6 -12 9 -78 9 l-95 0 38 -30 c20 -17 37 -37 37 -44 0 -7 16
-25 35 -39 l34 -27 -23 -42 c-13 -23 -26 -54 -30 -68 -7 -32 8 -121 29 -162
19 -37 19 -36 -5 -30 -11 3 -20 0 -20 -6 0 -20 -24 -12 -57 19 -19 18 -43 30
-58 30 -30 0 -65 16 -65 30 0 14 34 12 48 -2 9 -9 12 -8 12 8 0 11 7 42 16 67
13 40 14 55 4 97 -7 28 -15 50 -20 50 -4 0 -18 20 -31 45 -32 60 -49 59 -49
-5 0 -47 2 -50 25 -50 33 0 42 -25 20 -50 -14 -15 -17 -32 -13 -75 3 -38 1
-54 -6 -51 -6 3 -35 12 -63 21 -44 14 -54 21 -58 43 -16 76 -29 104 -62 136
-36 34 -36 34 -19 60 9 14 21 37 26 51 l10 25 -123 0 -122 -1 -28 -40 c-16
-23 -26 -43 -24 -46 3 -2 21 5 41 17 43 23 72 26 79 6 10 -25 -21 -41 -54 -29
-26 10 -29 9 -29 -8 0 -11 -4 -17 -10 -14 -5 3 -10 1 -10 -5 0 -6 -4 -9 -9 -5
-5 3 -16 -2 -24 -10 -9 -8 -22 -13 -29 -10 -8 3 -25 2 -38 -3 -24 -9 -24 -9
-4 -20 11 -6 27 -30 34 -54 7 -24 18 -49 23 -55 7 -9 5 -13 -7 -13 -9 0 -16 6
-16 14 0 15 -30 26 -72 26 -18 0 -28 5 -28 15 0 8 -6 24 -12 35 -11 17 -10 22
2 30 22 14 6 22 -45 22 -44 0 -46 1 -62 39 -8 21 -29 51 -46 65 l-31 26 -18
-26 c-21 -28 -39 -26 -75 7 -20 18 -23 18 -23 4 0 -24 36 -57 70 -64 26 -5 30
-10 30 -38 0 -21 5 -32 15 -32 8 0 15 4 15 9 0 24 23 2 40 -38 25 -56 25 -73
3 -90 -24 -18 -31 -17 -38 6 -8 24 -45 27 -45 3 0 -22 -48 -83 -66 -83 -16 0
-15 -2 -17 65 -2 57 -21 88 -91 153 -30 28 -55 42 -73 42 -26 1 -73 29 -73 45
0 3 7 13 15 21 8 9 15 19 15 23 0 4 -131 8 -291 9 -182 1 -288 -1 -284 -7 3
-6 27 -7 53 -4 37 4 52 2 65 -12 25 -25 21 -40 -22 -74 -56 -44 -86 -41 -140
15 -41 43 -43 46 -27 63 17 18 15 19 -33 19 -28 1 -53 -3 -56 -9 -8 -12 -62
-12 -70 1 -9 15 -115 11 -153 -5z m1314 -70 c4 -8 4 -22 0 -30 -5 -13 -9 -12
-26 5 -11 11 -18 25 -15 30 9 15 35 12 41 -5z m-1064 -40 c-3 -16 -11 -25 -23
-25 -24 0 -24 8 -1 31 24 25 30 23 24 -6z m1616 13 c14 -14 16 -28 2 -28 -5 0
-14 9 -20 20 -12 22 -1 27 18 8z m-33 -58 c3 -5 1 -10 -4 -10 -6 0 -11 5 -11
10 0 6 2 10 4 10 3 0 8 -4 11 -10z m41 -38 c-2 -4 -1 -26 3 -49 7 -36 5 -45
-14 -63 -12 -11 -26 -20 -32 -20 -6 0 -13 -4 -15 -9 -1 -5 -14 -11 -28 -13
-22 -3 -25 0 -22 24 1 15 13 39 25 52 67 74 79 86 83 86 3 0 3 -3 0 -8z m-346
-92 c-32 -25 -39 -25 -33 0 4 14 14 20 32 20 l26 0 -25 -20z m215 10 c4 -6 -7
-10 -24 -10 -17 0 -31 5 -31 10 0 6 11 10 24 10 14 0 28 -4 31 -10z m-155 -24
c0 -9 -7 -12 -20 -9 -11 3 -20 9 -20 14 0 5 9 9 20 9 11 0 20 -6 20 -14z m105
-6 c-3 -5 -10 -10 -16 -10 -5 0 -9 5 -9 10 0 6 7 10 16 10 8 0 12 -4 9 -10z
m-280 -9 c3 -6 -3 -15 -14 -20 -26 -14 -31 -14 -31 3 0 21 34 34 45 17z m485
-25 c0 -13 7 -29 15 -36 16 -13 20 -40 6 -40 -4 0 -23 14 -40 31 -31 29 -32
31 -15 50 23 25 34 24 34 -5z m-220 -56 c0 -5 11 -10 25 -10 17 0 25 -6 25
-16 0 -14 -8 -16 -55 -11 -67 7 -79 13 -62 32 14 16 67 20 67 5z m-454 -35
c18 -14 17 -14 -13 -15 -23 0 -36 -6 -44 -22 -12 -22 -12 -22 -19 -3 -5 15 0
24 19 37 33 21 33 21 57 3z m90 -21 c10 4 14 1 12 -6 -3 -7 -15 -15 -27 -16
-15 -2 -21 0 -17 7 4 6 3 11 -2 11 -5 0 -12 -8 -15 -19 -2 -10 -16 -20 -31
-23 -33 -7 -33 -2 5 33 25 23 35 27 45 18 8 -6 21 -8 30 -5z m89 6 c-3 -5 -16
-10 -28 -10 -18 0 -19 2 -7 10 20 13 43 13 35 0z m795 -26 c11 -12 10 -18 -4
-32 -10 -9 -16 -12 -15 -7 2 6 -2 20 -9 33 -11 18 -10 22 1 22 8 0 20 -7 27
-16z m-1209 -24 c16 -9 18 -17 12 -53 -4 -26 -15 -49 -30 -60 -12 -10 -23 -24
-23 -31 0 -7 -18 -29 -40 -49 -22 -19 -40 -32 -40 -27 0 4 -10 10 -22 14 -18
4 -20 8 -11 17 9 9 10 16 2 26 -9 10 -7 13 9 13 12 0 24 5 27 11 5 7 13 5 25
-6 13 -12 20 -13 25 -4 5 7 1 16 -9 21 -20 11 -21 38 -1 38 18 0 18 1 6 32
-19 51 20 84 70 58z m379 0 c0 -5 -2 -10 -4 -10 -3 0 -8 5 -11 10 -3 6 -1 10
4 10 6 0 11 -4 11 -10z m-50 -15 c-7 -9 -15 -13 -19 -10 -3 3 1 10 9 15 21 14
24 12 10 -5z m818 -28 c5 -25 -28 -34 -44 -12 -21 28 -17 37 13 33 17 -2 29
-10 31 -21z m326 -21 c3 -11 3 -22 1 -25 -9 -8 -45 32 -45 51 0 15 3 16 19 6
11 -7 22 -21 25 -32z m36 -52 c0 -8 -4 -12 -10 -9 -5 3 -10 13 -10 21 0 8 5
12 10 9 6 -3 10 -13 10 -21z m-1490 -31 c0 -10 -5 -25 -10 -33 -8 -13 -10 -13
-10 2 0 9 -3 23 -6 32 -4 11 -1 16 10 16 9 0 16 -8 16 -17z m-164 -108 c19
-15 18 -16 -7 -38 -21 -17 -26 -28 -22 -53 3 -18 0 -35 -6 -38 -6 -4 -11 -1
-11 7 0 8 -9 17 -20 20 -23 6 -26 36 -7 69 29 52 41 57 73 33z m94 -4 c0 -6
-4 -13 -10 -16 -5 -3 -10 1 -10 9 0 9 5 16 10 16 6 0 10 -4 10 -9z m48 -23
c-2 -6 -14 -15 -26 -19 -20 -7 -21 -6 -9 11 13 21 41 28 35 8z m-48 -53 c0
-16 -37 -58 -63 -71 -24 -13 -31 -13 -38 -3 -5 8 -1 20 9 30 9 9 19 12 20 8 6
-16 19 -9 30 16 10 21 42 36 42 20z m-145 -80 c-31 -13 -41 -13 -32 2 3 4 18
9 34 9 l28 1 -30 -12z m-209 -131 c-5 -13 -10 -14 -18 -6 -6 6 -8 18 -4 28 5
13 10 14 18 6 6 -6 8 -18 4 -28z m-176 -194 c0 -5 -4 -10 -10 -10 -5 0 -10 5
-10 10 0 6 5 10 10 10 6 0 10 -4 10 -10z m-130 -294 c0 -2 -7 -6 -15 -10 -8
-3 -15 -1 -15 4 0 6 7 10 15 10 8 0 15 -2 15 -4z m-30 -46 c0 -5 -4 -10 -10
-10 -5 0 -10 5 -10 10 0 6 5 10 10 10 6 0 10 -4 10 -10z m-30 -20 c0 -5 -4
-10 -10 -10 -5 0 -10 5 -10 10 0 6 5 10 10 10 6 0 10 -4 10 -10z m90 -60 c0
-5 -4 -10 -10 -10 -5 0 -10 5 -10 10 0 6 5 10 10 10 6 0 10 -4 10 -10z m70
-10 c0 -11 -4 -20 -10 -20 -5 0 -10 9 -10 20 0 11 5 20 10 20 6 0 10 -9 10
-20z m50 10 c0 -5 -6 -10 -14 -10 -8 0 -17 -6 -19 -12 -3 -7 -6 -3 -6 10 -1
16 5 22 19 22 11 0 20 -4 20 -10z m-160 -20 c0 -5 -4 -10 -10 -10 -5 0 -10 5
-10 10 0 6 5 10 10 10 6 0 10 -4 10 -10z m73 -16 c3 -3 3 -13 0 -21 -5 -12 -7
-12 -14 -1 -15 23 -4 40 14 22z m-173 -24 c0 -5 -7 -7 -15 -4 -8 4 -12 10 -9
15 6 11 24 2 24 -11z m460 10 c0 -5 -7 -10 -15 -10 -8 0 -15 5 -15 10 0 6 7
10 15 10 8 0 15 -4 15 -10z m284 -12 c9 -34 8 -38 -9 -38 -10 0 -15 10 -15 30
0 35 15 40 24 8z m-364 -38 c0 -11 -4 -20 -10 -20 -5 0 -10 2 -10 4 0 2 -3 11
-6 20 -4 11 -1 16 10 16 9 0 16 -8 16 -20z m-509 -47 c-12 -20 -14 -14 -5 12
4 9 9 14 11 11 3 -2 0 -13 -6 -23z m169 23 c0 -2 3 -11 6 -20 4 -11 1 -16 -10
-16 -9 0 -16 -4 -16 -10 0 -5 -4 -10 -8 -10 -5 0 -9 14 -9 30 0 22 5 30 19 30
10 0 18 -2 18 -4z m90 -22 c0 -3 -7 -12 -15 -20 -16 -17 -18 -14 -9 10 6 15
24 23 24 10z m50 -29 c0 -8 -4 -15 -10 -15 -5 0 -10 7 -10 15 0 8 5 15 10 15
6 0 10 -7 10 -15z m-230 -113 c6 -24 6 -38 0 -40 -6 -2 -10 -10 -10 -18 0 -8
-5 -14 -11 -14 -7 0 -9 9 -5 24 3 13 2 26 -3 28 -5 2 -6 18 -4 35 6 40 19 34
33 -15z m-110 28 c0 -5 -4 -10 -10 -10 -5 0 -10 5 -10 10 0 6 5 10 10 10 6 0
10 -4 10 -10z m270 0 c0 -5 -4 -10 -10 -10 -5 0 -10 5 -10 10 0 6 5 10 10 10
6 0 10 -4 10 -10z m-130 -20 c0 -5 -4 -10 -10 -10 -5 0 -10 5 -10 10 0 6 5 10
10 10 6 0 10 -4 10 -10z m114 -37 c-9 -38 -38 -67 -59 -59 -11 4 -15 12 -11
23 4 9 1 20 -6 24 -7 4 -9 11 -5 15 4 4 16 -3 27 -16 16 -19 20 -20 20 -6 0
18 20 45 33 46 4 0 4 -12 1 -27z m36 -59 c0 -9 -7 -14 -17 -12 -25 5 -28 28
-4 28 12 0 21 -6 21 -16z m76 -5 c6 -10 -17 -12 -40 -3 -9 3 -14 10 -11 14 6
10 43 1 51 -11z m-177 -19 c18 0 35 -52 20 -61 -9 -5 -8 -14 4 -33 21 -31 22
-46 2 -46 -9 0 -12 -6 -9 -15 6 -14 8 -13 19 1 9 13 14 14 19 5 16 -26 -2 -40
-50 -38 -62 2 -77 29 -44 82 12 20 19 39 16 43 -4 3 -11 0 -16 -8 -7 -10 -10
-11 -10 -2 0 6 -7 12 -15 12 -18 0 -20 17 -2 23 9 4 9 7 -1 18 -10 11 -8 17
10 31 20 15 24 15 34 3 6 -8 16 -15 23 -15z m-279 -120 c0 -5 -4 -10 -9 -10
-5 0 -11 -10 -14 -22 -3 -20 -4 -21 -11 -5 -5 9 -6 24 -2 32 6 17 36 21 36 5z
m270 -120 c0 -40 26 -80 48 -74 13 4 13 2 -3 -10 -24 -20 -51 -16 -47 6 1 10
-8 17 -28 21 -27 6 -30 10 -30 47 0 38 2 40 30 40 27 0 30 -3 30 -30z m40 -40
c0 -5 -4 -10 -10 -10 -5 0 -10 5 -10 10 0 6 5 10 10 10 6 0 10 -4 10 -10z
m243 -155 c-3 -9 -8 -14 -10 -11 -3 3 -2 9 2 15 9 16 15 13 8 -4z m30 -55 c7
-27 -13 -37 -30 -15 -10 15 -10 20 0 27 19 12 24 10 30 -12z m-573 -74 c0 -3
-7 -6 -16 -6 -11 0 -14 -5 -9 -17 5 -14 3 -15 -6 -6 -7 7 -9 22 -5 38 6 23 8
24 21 11 8 -8 15 -17 15 -20z m-40 -56 c0 -5 -2 -10 -4 -10 -3 0 -8 5 -11 10
-3 6 -1 10 4 10 6 0 11 -4 11 -10z m590 -108 c0 -11 -47 -52 -60 -52 -19 0
-10 32 10 37 11 3 20 9 20 14 0 5 7 9 15 9 8 0 15 -4 15 -8z m-27 -99 c-13 -8
-23 -22 -23 -29 0 -8 -4 -14 -8 -14 -5 0 -7 13 -4 28 3 22 9 28 30 29 l27 2
-22 -16z m64 -79 l-16 -29 2 43 c1 36 3 40 15 28 12 -12 12 -18 -1 -42z m-41
-2 c1 -15 5 -44 9 -65 7 -35 6 -39 -11 -35 -11 2 -18 11 -16 21 2 9 -4 20 -11
23 -9 3 -13 13 -9 26 3 14 1 19 -6 14 -14 -8 -15 -4 -6 18 3 9 12 16 20 16 8
0 14 5 14 12 0 23 14 -3 16 -30z m14 -146 c0 -31 -23 -66 -36 -54 -7 7 19 88
28 88 5 0 8 -15 8 -34z m-33 2 c-3 -8 -6 -5 -6 6 -1 11 2 17 5 13 3 -3 4 -12
1 -19z m-137 -23 c0 -8 -4 -15 -10 -15 -5 0 -7 7 -4 15 4 8 8 15 10 15 2 0 4
-7 4 -15z m181 -49 c-15 -18 -3 -27 25 -20 35 9 54 -15 44 -57 -4 -19 -8 -29
-9 -24 -1 6 -14 16 -31 23 -16 8 -30 20 -30 28 0 8 -4 14 -9 14 -19 0 -22 39
-4 57 13 14 19 15 21 5 2 -7 -1 -19 -7 -26z m-261 1 c0 -7 -10 -13 -22 -14
-22 -2 -22 -1 -4 13 24 17 26 17 26 1z m-210 -47 c0 -5 -2 -10 -4 -10 -3 0 -8
5 -11 10 -3 6 -1 10 4 10 6 0 11 -4 11 -10z m-60 -16 c0 -8 -5 -12 -10 -9 -6
4 -8 11 -5 16 9 14 15 11 15 -7z m659 -32 l-1 -37 -14 33 c-14 33 -11 57 7 47
5 -4 9 -23 8 -43z m-189 27 c0 -6 -5 -7 -11 -3 -8 5 -10 -2 -6 -21 3 -17 0
-34 -8 -42 -17 -16 -22 -3 -17 41 3 23 9 32 23 33 10 1 19 -3 19 -8z m-420
-35 c0 -9 -5 -14 -12 -12 -18 6 -21 28 -4 28 9 0 16 -7 16 -16z m525 -64 c3
-5 1 -10 -4 -10 -6 0 -11 5 -11 10 0 6 2 10 4 10 3 0 8 -4 11 -10z m-187 -205
c0 -34 -1 -36 -8 -15 -4 14 -8 43 -8 65 0 34 1 36 8 15 4 -14 8 -43 8 -65z
m-428 -2 c0 -14 -19 -38 -25 -32 -8 8 5 39 16 39 5 0 9 -3 9 -7z m162 -273
c10 0 18 -2 18 -4 0 -2 3 -12 7 -22 5 -12 3 -15 -6 -9 -11 6 -11 3 -1 -16 7
-13 17 -27 23 -30 5 -4 12 -30 15 -58 4 -49 3 -51 -20 -51 -21 0 -27 9 -51 83
-29 90 -36 140 -15 119 7 -7 20 -12 30 -12z m-102 -390 c6 -11 8 -20 6 -20 -3
0 -10 9 -16 20 -6 11 -8 20 -6 20 3 0 10 -9 16 -20z m97 -132 c-3 -7 -5 -2 -5
12 0 14 2 19 5 13 2 -7 2 -19 0 -25z m166 -263 c33 -82 37 -91 62 -160 12 -33
26 -68 30 -78 6 -14 0 -11 -19 8 -35 35 -84 147 -100 230 -3 17 -8 41 -12 55
-12 44 12 10 39 -55z m-113 -33 c12 -27 13 -52 2 -52 -10 0 -30 48 -38 90 l-6
35 16 -25 c8 -14 20 -35 26 -48z m297 -54 c-3 -7 -5 -2 -5 12 0 14 2 19 5 13
2 -7 2 -19 0 -25z m-177 -65 c0 -9 6 -24 14 -32 18 -20 31 -71 19 -71 -5 0
-14 10 -20 23 -33 71 -43 114 -23 102 6 -3 10 -13 10 -22z m119 -262 c12 -40
20 -75 18 -77 -8 -8 -77 162 -77 191 l0 30 18 -35 c11 -19 29 -68 41 -109z
m158 11 c9 -5 13 -15 9 -21 -9 -14 -56 26 -56 47 0 10 4 10 15 -2 9 -9 23 -20
32 -24z m-47 -149 c0 -6 9 -14 19 -18 22 -7 36 -46 20 -56 -6 -3 -10 -9 -10
-13 1 -3 1 -14 0 -23 0 -14 -3 -13 -11 4 -6 13 -28 42 -50 65 -38 42 -46 58
-28 58 6 0 10 -4 10 -10 0 -5 9 -14 21 -21 22 -11 22 -12 1 51 -3 9 2 6 11 -5
9 -11 17 -25 17 -32z m-270 -119 c0 -8 -4 -12 -10 -9 -5 3 -10 10 -10 16 0 5
5 9 10 9 6 0 10 -7 10 -16z m358 -9 c14 -30 15 -45 5 -45 -8 0 -33 47 -33 62
0 17 17 7 28 -17z m59 -82 c17 -22 63 -113 63 -126 0 -5 -16 14 -35 43 -19 29
-35 56 -35 61 0 5 -4 9 -10 9 -5 0 -10 7 -10 15 0 20 10 19 27 -2z m-386 -153
c5 0 9 -4 9 -10 0 -16 -37 -11 -44 6 -5 12 -2 15 10 10 8 -3 20 -6 25 -6z
m526 -12 c-3 -8 -6 -5 -6 6 -1 11 2 17 5 13 3 -3 4 -12 1 -19z m35 -167 c8 -1
25 -55 32 -106 l5 -40 -44 70 c-25 39 -45 73 -45 76 0 5 25 5 52 0z m-163 -85
c8 -10 9 -16 1 -21 -13 -8 -30 3 -30 21 0 18 14 18 29 0z m-614 -80 c13 -30
13 -35 1 -30 -12 5 -30 39 -54 104 -10 29 39 -39 53 -74z m555 58 c0 -17 -22
-14 -28 4 -2 7 3 12 12 12 9 0 16 -7 16 -16z m-125 -72 c-8 -9 -35 26 -35 46
0 9 8 4 21 -12 12 -15 18 -30 14 -34z m-84 -8 c5 -15 7 -29 4 -32 -3 -3 -5 -1
-5 5 0 6 -9 13 -20 16 -23 6 -27 37 -5 37 9 0 20 -12 26 -26z m-31 -29 c0 -8
-7 -15 -15 -15 -8 0 -15 7 -15 15 0 8 7 15 15 15 8 0 15 -7 15 -15z m-172
-103 c13 -26 16 -70 6 -96 -5 -14 -9 -12 -23 7 -28 37 -39 69 -45 127 l-6 55
28 -35 c15 -19 33 -45 40 -58z m252 -112 c0 -11 -7 -20 -15 -20 -17 0 -18 2
-9 24 9 23 24 20 24 -4z m-217 -50 c8 -32 -10 -23 -22 11 -9 26 -9 29 3 20 8
-7 16 -21 19 -31z m377 30 c0 -5 -4 -10 -9 -10 -6 0 -13 5 -16 10 -3 6 1 10 9
10 9 0 16 -4 16 -10z m-130 -25 c0 -8 -7 -15 -15 -15 -8 0 -15 7 -15 15 0 8 7
15 15 15 8 0 15 -7 15 -15z m-80 -39 c0 -18 -27 -39 -40 -31 -5 3 -10 15 -10
26 0 14 7 19 25 19 15 0 25 -6 25 -14z m-60 -119 c25 -40 25 -47 0 -47 -18 0
-60 62 -60 90 0 19 40 -9 60 -43z m137 1 c25 -48 46 -118 36 -118 -3 0 -24 14
-48 30 -24 17 -48 30 -54 30 -14 0 -33 38 -26 50 4 6 11 8 16 5 5 -4 9 5 9 18
0 57 33 49 67 -15z m78 12 c-3 -5 -10 -10 -16 -10 -5 0 -9 5 -9 10 0 6 7 10
16 10 8 0 12 -4 9 -10z m30 -93 c14 -24 25 -51 25 -60 0 -11 5 -14 17 -10 13
5 12 2 -4 -14 -11 -11 -23 -41 -27 -67 -6 -40 -10 -46 -32 -46 -13 0 -24 4
-24 9 0 5 -3 16 -6 25 -4 11 -1 16 10 16 20 0 20 19 1 44 -17 23 -20 56 -5 56
6 0 10 20 10 45 0 25 2 45 5 45 2 0 16 -20 30 -43z m193 21 c14 -14 16 -48 3
-48 -5 0 -11 5 -13 11 -2 5 -12 12 -23 14 -11 2 -21 4 -23 4 -1 1 3 8 10 16
16 18 30 19 46 3z m-102 -129 c1 -35 1 -37 -3 -9 -3 19 -10 41 -16 49 -10 11
-9 13 3 9 10 -3 15 -19 16 -49z m-229 9 c24 -23 30 -52 12 -64 -16 -9 -35 16
-42 54 -8 38 -2 40 30 10z m210 -248 c3 -11 9 -20 14 -20 6 0 14 -10 19 -22
l9 -23 0 25 c1 21 3 20 21 -15 14 -27 17 -41 9 -46 -9 -5 -9 -15 -1 -37 8 -23
7 -35 -3 -49 -19 -25 -18 -47 6 -139 17 -68 30 -183 29 -262 0 -13 8 -36 19
-50 26 -37 32 -64 20 -82 -8 -11 -12 -12 -16 -2 -2 6 -11 12 -19 12 -8 0 -14
6 -14 13 0 6 -5 41 -11 77 -26 169 -31 209 -34 265 -4 73 -21 205 -29 212 -14
15 -26 -15 -26 -68 0 -33 -4 -59 -10 -59 -6 0 -10 36 -10 88 0 68 -5 97 -20
127 -21 41 -20 55 3 36 12 -9 13 -7 9 14 -3 19 0 25 13 25 9 0 19 -9 22 -20z
m33 -1 c0 -5 -4 -9 -10 -9 -5 0 -10 7 -10 16 0 8 5 12 10 9 6 -3 10 -10 10
-16z m558 3 c2 -7 -3 -12 -12 -12 -9 0 -16 7 -16 16 0 17 22 14 28 -4z m-463
-112 c19 -20 14 -55 -7 -48 -13 5 -30 68 -18 68 4 0 15 -9 25 -20z m481 -104
c18 -19 18 -26 -1 -26 -8 0 -15 2 -15 4 0 2 -3 11 -6 20 -8 20 3 21 22 2z m84
-24 c-19 -7 -40 7 -34 22 5 12 8 12 25 -2 11 -9 15 -18 9 -20z m-230 -42 c0
-5 -4 -10 -10 -10 -5 0 -10 5 -10 10 0 6 5 10 10 10 6 0 10 -4 10 -10z m-437
-190 c9 -82 -10 -39 -28 65 -8 48 -15 95 -14 104 1 28 36 -112 42 -169z m780
145 c20 -9 37 -20 37 -25 0 -5 10 -10 22 -12 30 -4 35 -34 7 -48 -24 -13 -42
1 -32 27 3 7 0 13 -6 13 -6 0 -11 -17 -12 -37 0 -31 -2 -34 -9 -18 -9 19 -9
19 -16 -2 -15 -52 -44 -7 -60 97 -6 39 -6 41 12 32 10 -6 36 -18 57 -27z
m-581 -70 c12 -45 4 -57 -39 -53 -36 3 -38 5 -41 40 -2 28 1 37 15 41 38 10
57 2 65 -28z m735 13 c-3 -8 -6 -5 -6 6 -1 11 2 17 5 13 3 -3 4 -12 1 -19z
m513 2 c0 -5 14 -10 30 -10 17 0 30 -4 30 -10 0 -5 -6 -8 -12 -6 -7 3 -25 7
-40 10 -26 6 -40 26 -18 26 6 0 10 -4 10 -10z m-139 -49 c7 -18 6 -22 -9 -19
-9 2 -19 14 -20 27 -5 30 18 24 29 -8z m-856 -13 c6 -4 0 -8 -12 -8 -16 0 -21
4 -16 15 3 9 8 12 12 8 3 -4 11 -11 16 -15z m1092 -30 c-3 -8 -6 -5 -6 6 -1
11 2 17 5 13 3 -3 4 -12 1 -19z m-747 -38 c0 -24 -13 -26 -34 -4 -21 21 -20
24 9 24 18 0 25 -5 25 -20z m610 0 c0 -11 -4 -20 -10 -20 -5 0 -10 9 -10 20 0
11 5 20 10 20 6 0 10 -9 10 -20z m-948 -62 c-8 -8 -9 -4 -5 13 4 13 8 18 11
10 2 -7 -1 -18 -6 -23z m308 22 c0 -14 27 -12 34 3 3 6 5 3 3 -8 -3 -23 -36
-33 -48 -13 -12 18 -11 28 1 28 6 0 10 -4 10 -10z m-439 -70 c21 -52 23 -94 8
-139 -12 -34 -29 -42 -29 -13 0 11 -9 29 -20 42 -24 27 -23 18 -9 97 6 35 16
62 21 61 6 -2 19 -24 29 -48z m489 15 c0 -9 -9 -15 -22 -15 -13 0 -34 -2 -48
-5 -24 -4 -24 -4 3 7 15 7 27 15 27 20 0 4 9 8 20 8 11 0 20 -7 20 -15z m257
-37 c-3 -8 -6 -5 -6 6 -1 11 2 17 5 13 3 -3 4 -12 1 -19z m-1527 -25 c17 -17
20 -58 5 -78 -22 -28 -120 -29 -141 -1 -17 24 -18 82 -1 90 17 8 128 -1 137
-11z m894 -18 c3 -9 0 -15 -9 -15 -9 0 -12 6 -9 15 4 8 7 15 9 15 2 0 5 -7 9
-15z m888 4 c2 -6 19 -12 38 -14 55 -4 56 -5 40 -15 -13 -9 -13 -11 0 -20 20
-13 30 -12 26 3 -1 6 -1 9 1 5 3 -5 13 -8 23 -8 10 0 20 -9 23 -20 4 -17 1
-20 -26 -18 -31 2 -66 31 -67 55 0 7 -6 10 -13 7 -18 -6 -67 13 -67 26 0 14
17 13 22 -1z m-902 -39 c0 -5 -4 -10 -10 -10 -5 0 -10 5 -10 10 0 6 5 10 10
10 6 0 10 -4 10 -10z m1110 0 c0 -5 -7 -10 -15 -10 -8 0 -15 5 -15 10 0 6 7
10 15 10 8 0 15 -4 15 -10z m80 0 c0 -5 -7 -10 -15 -10 -8 0 -15 5 -15 10 0 6
7 10 15 10 8 0 15 -4 15 -10z m-920 -20 c0 -5 -4 -10 -10 -10 -5 0 -10 5 -10
10 0 6 5 10 10 10 6 0 10 -4 10 -10z m850 -11 c0 -15 -18 -19 -23 -6 -3 8 1
14 9 14 8 0 14 -4 14 -8z m-750 -38 c0 -5 -11 -11 -25 -13 -20 -4 -23 -3 -14
8 13 16 39 19 39 5z m679 -24 c0 -21 -1 -21 -9 -2 -12 28 -12 37 0 30 6 -3 10
-16 9 -28z m-24 14 c8 -15 -13 -23 -38 -15 -21 7 -21 7 -2 15 27 10 33 10 40
0z m-77 -32 c19 -30 11 -32 -11 -3 -10 13 -14 24 -10 24 5 0 14 -9 21 -21z"/>
<path d="M1015 6760 c-3 -5 -1 -10 4 -10 6 0 11 5 11 10 0 6 -2 10 -4 10 -3 0
-8 -4 -11 -10z"/>
<path d="M318 5303 c7 -3 16 -2 19 1 4 3 -2 6 -13 5 -11 0 -14 -3 -6 -6z"/>
<path d="M770 823 c0 -5 9 -18 20 -28 11 -10 20 -14 20 -8 0 5 -9 18 -20 28
-11 10 -20 14 -20 8z"/>
<path d="M2275 130 c3 -5 8 -10 11 -10 2 0 4 5 4 10 0 6 -5 10 -11 10 -5 0 -7
-4 -4 -10z"/>
<path d="M1567 7653 c-17 -16 -3 -23 49 -23 30 0 64 -5 75 -10 22 -12 24 -7 9
21 -9 15 -22 19 -69 19 -32 0 -61 -3 -64 -7z"/>
<path d="M5647 7633 c-3 -16 -8 -38 -12 -50 -5 -16 -3 -23 5 -23 7 0 18 -7 24
-15 16 -21 96 -9 96 15 0 10 8 28 19 41 10 12 16 31 13 41 -5 21 -41 24 -61 6
-11 -10 -14 -10 -18 0 -3 6 -17 12 -33 12 -22 0 -29 -5 -33 -27z"/>
<path d="M5840 7643 c1 -23 39 -93 40 -72 0 8 -6 21 -12 27 -10 10 -10 14 0
21 16 9 5 41 -14 41 -8 0 -14 -8 -14 -17z"/>
<path d="M6930 7625 c0 -9 9 -15 21 -15 18 0 19 2 5 15 -8 8 -17 15 -20 15 -3
0 -6 -7 -6 -15z"/>
<path d="M5645 7530 c3 -5 1 -10 -4 -10 -6 0 -11 -13 -11 -30 0 -25 4 -30 25
-30 14 0 25 -4 25 -9 0 -21 -13 -41 -26 -41 -19 0 -35 -42 -20 -52 8 -6 7 -8
-1 -8 -19 0 -15 -48 5 -59 15 -9 15 -10 -4 -11 -15 0 -29 -13 -44 -42 -12 -24
-25 -45 -29 -48 -12 -9 -51 -81 -51 -94 0 -8 10 -16 22 -19 17 -5 32 4 65 39
24 24 43 48 43 53 0 5 15 19 34 30 48 30 115 28 149 -3 19 -18 29 -21 35 -13
21 26 43 134 40 197 -3 61 -5 65 -25 63 -20 -2 -23 2 -23 30 0 17 -7 40 -14
50 -13 17 -15 15 -26 -19 l-12 -36 -49 6 c-67 9 -78 14 -85 42 -3 13 -10 24
-16 24 -5 0 -6 -4 -3 -10z m148 -236 c-7 -19 -23 -7 -23 18 0 17 3 18 14 8 8
-6 12 -18 9 -26z"/>
<path d="M7544 7366 c-31 -14 -88 -92 -99 -138 -10 -36 -27 -54 -66 -67 -49
-16 -74 -45 -95 -111 -10 -30 -25 -60 -34 -67 -10 -7 -29 -36 -43 -66 -14 -29
-37 -61 -51 -71 -15 -9 -24 -21 -21 -25 3 -5 -1 -11 -9 -14 -7 -3 -16 -17 -20
-31 -3 -14 -18 -38 -32 -53 -15 -15 -30 -37 -35 -48 -5 -11 -13 -27 -18 -35
-21 -38 -39 -77 -44 -100 -3 -14 -13 -34 -22 -45 -8 -11 -39 -69 -69 -130 -29
-60 -62 -120 -72 -132 -11 -11 -26 -31 -34 -43 -8 -12 -20 -28 -25 -34 -20
-21 -45 -84 -46 -113 0 -15 -3 -22 -6 -15 -3 9 -41 12 -138 12 -97 0 -135 3
-138 13 -4 10 -6 10 -6 0 -1 -9 -22 -13 -70 -13 -46 0 -71 4 -74 13 -4 9 -8 8
-17 -3 -9 -11 -13 -12 -17 -2 -2 6 -13 12 -24 12 -10 0 -19 -6 -19 -12 0 -10
-2 -10 -9 0 -7 11 -10 10 -15 -3 -11 -30 -6 -45 14 -45 11 0 20 -4 20 -10 0
-6 60 -10 160 -10 100 0 160 4 160 10 0 6 20 10 45 10 25 0 45 -4 45 -10 0 -5
16 -10 35 -10 25 0 35 -4 35 -16 0 -8 4 -13 9 -10 13 8 8 -15 -9 -41 -15 -23
-17 -23 -257 -23 -184 0 -243 3 -246 13 -3 6 -6 2 -6 -10 -1 -27 -7 -28 -28
-8 -12 13 -13 18 -3 31 11 12 9 21 -6 49 -10 19 -24 35 -31 35 -6 0 -15 9 -18
20 -3 11 -15 20 -26 20 -30 0 -25 -10 41 -77 23 -23 31 -37 23 -40 -7 -3 -13
-11 -13 -19 0 -12 -39 -14 -235 -14 -150 0 -235 -4 -235 -10 0 -5 -22 -10 -50
-10 -27 0 -50 5 -50 10 0 6 -7 10 -15 10 -28 0 -10 -24 58 -77 l68 -54 102 7
c56 3 119 10 140 14 21 4 37 4 37 -1 0 -5 24 -9 53 -9 37 0 48 -3 37 -10 -10
-7 14 -8 73 -4 63 5 87 4 87 -5 0 -18 150 0 178 22 7 6 39 7 78 3 44 -4 64 -3
59 4 -4 6 0 7 10 4 9 -4 14 -13 11 -20 -4 -10 7 -16 34 -20 75 -12 40 -24 -69
-24 -78 0 -111 4 -115 13 -5 10 -7 10 -12 0 -7 -15 -54 -17 -54 -3 0 6 -7 10
-15 10 -8 0 -15 -4 -15 -10 0 -5 -9 -10 -20 -10 -11 0 -20 -4 -20 -10 0 -5
-13 -10 -30 -10 -16 0 -30 5 -30 10 0 6 -9 10 -20 10 -13 0 -20 -7 -20 -20 0
-11 5 -20 10 -20 6 0 10 -4 10 -10 0 -5 -12 -10 -26 -10 -19 0 -25 4 -20 15 3
8 9 22 12 30 5 11 -1 15 -20 15 -14 0 -26 -4 -26 -10 0 -6 -37 -10 -90 -10
-53 0 -90 -4 -90 -10 0 -6 30 -10 70 -10 40 0 70 -4 70 -10 0 -6 -32 -10 -75
-10 l-75 0 -7 31 c-4 22 -8 27 -14 17 -6 -9 -9 -7 -9 10 0 12 -4 22 -10 22 -5
0 -10 -9 -10 -20 0 -17 -7 -20 -40 -20 -50 0 -51 -15 -3 -57 38 -34 57 -40 68
-23 3 6 13 10 22 10 13 0 13 -3 3 -15 -10 -12 -10 -15 3 -15 9 0 19 5 22 10 3
6 21 9 38 9 l32 -1 -30 -8 c-26 -7 -27 -8 -7 -10 12 -1 28 -3 35 -4 6 -1 18 2
25 7 8 7 27 6 52 -2 29 -9 45 -9 60 -1 20 10 116 0 141 -15 5 -4 9 -1 9 4 0 6
7 11 16 11 8 0 12 -4 9 -10 -3 -5 1 -10 10 -10 9 0 13 5 10 10 -4 6 41 10 127
9 73 0 127 -3 120 -6 -13 -5 -27 -33 -43 -88 -7 -26 -7 -28 5 -12 7 9 18 17
24 17 7 0 15 12 18 28 10 36 32 52 74 50 l35 -1 -35 -7 c-19 -4 -27 -8 -17 -9
21 -1 21 1 -3 -55 -18 -39 -25 -46 -49 -46 -37 0 -43 -17 -30 -84 6 -35 6 -62
0 -80 -6 -15 -7 -26 -1 -26 5 0 5 -13 -1 -32 -5 -18 -9 -46 -9 -63 1 -29 1
-29 15 -11 15 19 15 19 28 1 11 -14 16 -15 22 -5 5 9 4 15 -3 18 -20 6 -13 22
9 22 19 0 21 -4 15 -30 -3 -17 -19 -47 -35 -68 -16 -20 -32 -50 -34 -67 l-4
-30 -2 32 c0 17 -6 35 -11 38 -8 5 -7 12 2 23 9 12 6 12 -9 -2 -13 -10 -26
-35 -30 -55 l-7 -36 -6 35 c-4 27 -10 35 -25 35 -12 0 -20 7 -20 17 0 23 -20
23 -21 0 0 -9 -4 -25 -8 -35 -5 -9 -5 -29 -2 -43 7 -28 -2 -94 -13 -94 -4 0
-17 21 -29 48 -13 30 -21 40 -21 26 -1 -11 5 -34 13 -50 8 -16 28 -63 45 -104
45 -109 45 -108 75 -74 24 27 25 28 26 7 0 -12 -11 -30 -24 -40 l-24 -19 29
-61 c16 -34 33 -65 39 -68 6 -4 8 -10 5 -15 -3 -5 6 -33 21 -61 17 -35 28 -48
34 -39 4 7 7 -4 6 -26 0 -22 9 -59 21 -84 11 -25 38 -94 58 -155 21 -60 48
-139 62 -175 13 -36 27 -83 30 -105 7 -49 25 -64 36 -30 5 14 15 25 22 25 14
0 28 -27 20 -40 -3 -4 2 -11 10 -14 17 -6 65 13 65 26 0 18 36 6 54 -18 15
-22 17 -36 11 -92 -3 -37 -11 -86 -17 -110 -8 -33 -8 -49 2 -68 10 -19 11 -29
1 -50 -8 -18 -11 -129 -11 -381 l0 -356 24 -31 c46 -61 75 -83 100 -79 19 4
26 -2 40 -37 17 -43 16 -51 -15 -86 -10 -11 -25 -41 -33 -67 -8 -27 -25 -62
-39 -80 -13 -18 -29 -49 -36 -69 -11 -33 -9 -42 15 -90 14 -29 33 -61 42 -71
20 -23 12 -29 -48 -35 l-50 -5 0 -43 c0 -23 -4 -46 -10 -49 -19 -12 -10 -30
23 -45 43 -20 45 -41 5 -87 -34 -38 -34 -39 -37 -149 -3 -109 -2 -112 24 -138
31 -31 29 -48 -6 -56 l-24 -6 4 -130 c2 -71 7 -131 11 -134 5 -3 8 -121 9
-263 0 -141 3 -262 6 -267 6 -10 -21 -70 -33 -70 -15 0 -62 -48 -62 -63 0 -9
15 -20 33 -27 80 -27 77 -13 78 -388 l1 -262 339 0 339 0 0 2060 0 2060 -30 0
c-27 0 -29 2 -24 29 l6 29 -133 5 c-153 6 -198 13 -255 44 -45 24 -174 156
-174 177 0 8 -16 29 -36 48 -37 35 -67 84 -78 131 -4 19 -16 32 -36 38 -20 7
-33 23 -44 50 -9 22 -25 50 -36 61 -24 26 -25 47 -5 74 8 10 15 28 15 38 0 11
12 37 27 58 26 38 26 39 17 144 -9 107 -6 128 36 269 34 114 34 112 16 175
-21 73 -15 100 22 101 29 1 24 3 -21 13 -15 4 -25 11 -22 17 5 7 11 7 19 0 6
-5 41 -12 76 -15 194 -15 230 -19 230 -25 0 -4 -10 -7 -22 -8 -35 -3 -56 -63
-22 -63 9 0 23 -8 31 -17 20 -27 46 -86 44 -102 -3 -19 20 -71 31 -71 6 0 7 8
3 18 -17 40 -18 62 -1 62 9 0 16 -8 16 -20 0 -11 5 -20 10 -20 6 0 10 -8 10
-17 0 -10 9 -33 20 -51 11 -18 20 -42 20 -54 0 -11 8 -28 18 -37 23 -20 62
-88 62 -106 0 -7 7 -21 16 -30 23 -23 35 -83 21 -106 -6 -10 -8 -22 -4 -26 5
-4 12 -1 17 7 8 13 12 12 24 -5 23 -30 20 -46 -8 -42 -34 4 -57 27 -51 48 5
13 -2 19 -27 24 -64 13 -68 15 -68 46 0 16 5 29 10 29 6 0 10 11 10 25 0 14
-5 25 -11 25 -5 0 -17 16 -25 35 -8 19 -19 35 -24 35 -14 0 -13 -7 6 -35 17
-26 11 -65 -11 -65 -14 0 -25 21 -25 51 0 10 -4 19 -9 19 -16 0 -17 -45 -1
-90 11 -33 21 -46 38 -48 17 -3 29 -17 43 -49 11 -26 28 -53 37 -62 10 -9 23
-28 30 -43 6 -16 17 -28 23 -28 9 0 9 -3 0 -14 -9 -10 -8 -16 4 -26 14 -12 32
-11 112 6 30 6 32 4 42 -32 5 -22 11 -48 13 -59 2 -11 8 -20 13 -20 15 0 18
135 4 162 -9 18 -10 29 -1 48 15 32 16 125 2 125 -5 0 -10 -6 -10 -13 0 -14
-26 -39 -59 -57 -18 -9 -21 -8 -21 12 0 13 -9 31 -20 41 -22 18 -25 43 -10 67
9 13 11 13 21 0 8 -11 12 -12 16 -2 6 14 33 16 33 2 0 -5 14 -10 30 -10 l30 0
0 85 c0 69 -3 85 -15 85 -8 0 -15 5 -15 10 0 6 7 10 15 10 12 0 15 19 15 114
0 66 -4 117 -10 121 -5 3 -10 19 -10 36 0 16 5 29 10 29 6 0 10 48 10 125 0
95 -3 124 -12 122 -9 -1 -14 14 -16 48 -2 48 -1 49 13 25 14 -25 14 -24 15 20
l0 45 -367 -3 c-205 -2 -369 -8 -371 -13 -5 -12 -32 -11 -32 1 0 6 -7 10 -15
10 -8 0 -15 -4 -15 -10 0 -5 -16 -10 -35 -10 -19 0 -35 5 -35 10 0 6 -6 10
-14 10 -21 0 12 164 37 181 5 4 12 27 14 53 3 25 10 46 15 46 14 0 33 22 52
58 9 17 21 31 28 29 6 -1 19 29 29 66 9 38 26 79 37 90 11 12 22 34 26 50 7
28 31 37 39 15 2 -7 2 -28 -1 -45 -6 -42 12 -43 26 -3 6 16 17 37 24 45 7 8
25 30 41 48 45 53 47 56 47 64 0 14 121 143 133 143 7 0 27 27 46 60 19 32 38
57 42 54 10 -6 39 24 39 41 0 8 6 12 14 9 15 -6 46 42 46 71 0 8 5 15 11 15 6
0 9 8 7 18 -4 21 2 30 75 102 45 45 57 64 57 89 0 26 -4 31 -24 31 -13 0 -26
7 -30 15 -3 8 -15 15 -26 15 -24 0 -27 26 -4 58 11 15 25 22 50 22 35 0 46 13
18 24 -24 9 -56 6 -90 -8z m-55 -230 c20 -21 22 -31 16 -63 -3 -21 -16 -48
-27 -60 l-20 -21 -34 20 c-46 27 -46 66 -1 113 17 18 35 34 38 34 3 1 16 -10
28 -23z m-129 -78 c0 -19 -2 -20 -10 -8 -13 19 -13 30 0 30 6 0 10 -10 10 -22z
m-25 -138 c23 -44 20 -70 -9 -70 -13 0 -34 8 -46 18 -22 18 -22 19 -6 50 21
40 41 41 61 2z m-99 -125 c3 -14 11 -25 18 -25 6 0 3 -7 -6 -14 -10 -7 -14
-17 -10 -21 4 -5 1 -5 -6 -1 -7 4 -28 -2 -48 -13 -19 -12 -37 -21 -40 -21 -2
0 9 27 26 60 32 64 56 76 66 35z m-916 -955 c0 -5 -4 -10 -10 -10 -5 0 -10 5
-10 10 0 6 5 10 10 10 6 0 10 -4 10 -10z m60 0 c0 -5 -4 -10 -10 -10 -5 0 -10
5 -10 10 0 6 5 10 10 10 6 0 10 -4 10 -10z m210 0 c0 -5 -4 -10 -10 -10 -5 0
-10 5 -10 10 0 6 5 10 10 10 6 0 10 -4 10 -10z m987 -40 c13 0 23 -4 23 -10 0
-5 -9 -10 -19 -10 -11 0 -23 -5 -27 -11 -5 -8 -9 -8 -14 1 -6 10 -23 10 -79 0
-40 -7 -81 -10 -92 -7 -10 3 -19 1 -19 -4 0 -5 -4 -9 -10 -9 -5 0 -10 18 -10
40 l0 40 100 0 c73 0 100 3 101 13 1 6 6 0 12 -15 7 -19 18 -28 34 -28z
m-1067 15 c0 -8 -4 -15 -10 -15 -5 0 -10 7 -10 15 0 8 5 15 10 15 6 0 10 -7
10 -15z m170 5 c0 -5 -4 -10 -10 -10 -5 0 -10 5 -10 10 0 6 5 10 10 10 6 0 10
-4 10 -10z m191 -2 c1 -7 1 -15 1 -18 0 -3 43 -3 95 0 52 3 153 4 224 2 119
-3 129 -5 129 -23 0 -16 -7 -19 -47 -19 -27 0 -43 -4 -36 -8 6 -4 -59 -8 -145
-9 -114 -2 -157 -5 -164 -15 -6 -10 -10 -10 -18 2 -7 11 -5 16 5 18 24 5 7 22
-22 22 -21 0 -24 -2 -13 -15 11 -13 4 -15 -51 -15 -39 0 -59 4 -51 9 15 9 -29
21 -79 21 -15 0 -31 5 -34 10 -6 9 97 16 162 10 17 -1 20 3 16 19 -4 15 -1 21
11 21 9 0 17 -6 17 -12z m-684 -14 c-3 -3 -12 -4 -19 -1 -8 3 -5 6 6 6 11 1
17 -2 13 -5z m376 -1 c-7 -2 -21 -2 -30 0 -10 3 -4 5 12 5 17 0 24 -2 18 -5z
m-309 -42 c4 -5 -3 -7 -14 -4 -23 6 -26 13 -6 13 8 0 17 -4 20 -9z m371 0 l40
-9 -35 0 c-19 0 -46 4 -60 8 -20 6 -21 8 -5 8 11 1 38 -3 60 -7z m971 -58 c-8
-15 -15 -25 -16 -21 0 12 23 58 27 54 3 -2 -2 -17 -11 -33z m-716 -13 c0 -5
-11 -10 -25 -10 -14 0 -25 5 -25 10 0 6 11 10 25 10 14 0 25 -4 25 -10z
m-1020 -20 c0 -5 -9 -10 -20 -10 -11 0 -20 5 -20 10 0 6 9 10 20 10 11 0 20
-4 20 -10z m1723 -36 c11 -4 14 -15 11 -42 -12 -88 -20 -98 -52 -65 -12 12
-13 18 -4 21 6 2 12 10 12 18 0 8 -7 11 -17 8 -11 -4 -14 -2 -8 3 6 4 16 20
22 36 14 29 14 30 36 21z m-1473 -18 c0 -9 -30 -14 -35 -6 -4 6 3 10 14 10 12
0 21 -2 21 -4z m758 -24 c30 -19 28 -42 -3 -42 -14 0 -25 -4 -25 -10 0 -5 -11
-10 -25 -10 -14 0 -25 -4 -25 -10 0 -5 -9 -10 -20 -10 -11 0 -20 5 -20 10 0
15 -38 12 -42 -2 -3 -7 -5 1 -5 18 0 26 6 33 34 43 18 7 33 16 33 21 0 22 59
17 98 -8z m532 -3 c49 -10 50 -11 50 -47 0 -28 -3 -33 -10 -22 -8 12 -10 11
-10 -7 0 -13 -3 -23 -6 -23 -15 0 -44 45 -44 67 0 18 -5 23 -24 23 -14 0 -28
5 -31 10 -8 13 12 13 75 -1z m-97 -101 c4 -12 4 -24 1 -27 -6 -7 -24 20 -24
37 0 21 17 13 23 -10z m-673 -28 c0 -16 -4 -30 -8 -30 -5 0 -7 14 -4 30 2 17
6 30 8 30 2 0 4 -13 4 -30z m220 -9 c16 -4 26 -15 29 -31 3 -23 4 -24 12 -5 7
17 8 17 8 -7 1 -19 -4 -28 -14 -28 -8 0 -15 5 -15 12 0 6 -8 1 -19 -10 -13
-16 -30 -22 -60 -22 -22 0 -41 -4 -41 -10 0 -5 9 -10 20 -10 14 0 20 -7 20
-24 0 -19 -7 -25 -35 -30 -19 -4 -35 -11 -35 -16 0 -5 16 -17 35 -26 19 -9 35
-18 35 -20 0 -2 -8 -19 -17 -39 -12 -25 -21 -34 -32 -29 -20 8 -32 8 -53 -1
-22 -9 -23 5 -3 70 10 34 11 54 4 67 -7 14 -7 18 3 16 9 -2 14 12 16 45 3 41
1 47 -17 47 -10 0 -22 -6 -24 -12 -4 -9 -6 -8 -6 2 0 8 19 27 42 42 43 28 92
34 147 19z m570 -154 c0 -31 -5 -45 -20 -55 -18 -11 -20 -10 -20 12 0 45 13
86 26 86 10 0 14 -13 14 -43z m120 -2 c0 -8 -4 -15 -10 -15 -5 0 -12 -11 -16
-25 -5 -20 -9 -23 -20 -14 -20 16 -17 28 9 50 27 22 37 24 37 4z m40 -71 c0
-3 -7 -12 -15 -20 -16 -17 -18 -14 -9 10 6 15 24 23 24 10z m5 -84 c3 -5 1
-10 -4 -10 -6 0 -11 5 -11 10 0 6 2 10 4 10 3 0 8 -4 11 -10z m-835 -25 c11
-13 10 -18 -6 -30 -19 -14 -19 -14 0 -15 11 0 17 -3 14 -6 -3 -3 -33 -2 -67 2
-60 6 -61 7 -35 20 14 8 33 14 40 14 8 0 14 7 14 15 0 19 24 19 40 0z m-174
-72 c-11 -11 -17 4 -9 23 7 18 8 18 11 1 2 -10 1 -21 -2 -24z m-112 -18 c6
-26 4 -31 -14 -31 -16 0 -20 7 -20 31 0 56 22 56 34 0z m56 -14 c0 -6 -4 -13
-10 -16 -5 -3 -10 1 -10 9 0 9 5 16 10 16 6 0 10 -4 10 -9z m-60 -41 c0 -5 -4
-10 -10 -10 -5 0 -10 5 -10 10 0 6 5 10 10 10 6 0 10 -4 10 -10z m121 -87 c-8
-15 -10 -15 -11 -2 0 17 10 32 18 25 2 -3 -1 -13 -7 -23z m1039 -23 c0 -5 -7
-10 -15 -10 -8 0 -15 5 -15 10 0 6 7 10 15 10 8 0 15 -4 15 -10z m-5 -29 c3
-5 1 -12 -5 -16 -5 -3 -10 1 -10 9 0 18 6 21 15 7z m-55 -17 c0 -8 -4 -12 -10
-9 -5 3 -10 10 -10 16 0 5 5 9 10 9 6 0 10 -7 10 -16z m-920 -173 c0 -11 -31
-24 -39 -16 -3 3 1 10 9 15 19 12 30 12 30 1z m250 -115 c0 -2 -7 -7 -16 -10
-8 -3 -12 -2 -9 4 6 10 25 14 25 6z m494 -382 c9 -24 0 -29 -19 -11 -19 19
-19 27 -1 27 8 0 17 -7 20 -16z m156 -34 c0 -5 -13 -10 -30 -10 -16 0 -30 5
-30 10 0 6 14 10 30 10 17 0 30 -4 30 -10z"/>
<path d="M7388 5803 c7 -3 16 -2 19 1 4 3 -2 6 -13 5 -11 0 -14 -3 -6 -6z"/>
<path d="M6840 5770 c-9 -6 -10 -10 -3 -10 6 0 15 5 18 10 8 12 4 12 -15 0z"/>
<path d="M1915 7154 c9 -9 19 -13 23 -10 3 4 0 11 -8 16 -24 15 -33 11 -15 -6z"/>
<path d="M2031 7156 c-9 -10 -8 -15 4 -20 10 -4 15 1 15 14 0 24 -4 25 -19 6z"/>
<path d="M1978 7113 c3 -19 7 -21 13 -11 7 9 11 10 17 2 6 -11 94 -45 100 -40
8 8 -22 66 -34 66 -12 0 -12 -4 2 -25 18 -27 14 -33 -8 -12 -7 7 -31 20 -54
28 l-41 16 5 -24z"/>
<path d="M1920 7120 c0 -5 7 -10 16 -10 10 0 14 -7 12 -22 -2 -18 -16 -27 -63
-42 l-60 -20 43 -7 c40 -8 46 -6 73 22 18 18 28 37 25 46 -3 8 -6 21 -6 29 0
8 -9 14 -20 14 -11 0 -20 -4 -20 -10z"/>
<path d="M5837 7054 c-19 -60 -15 -82 9 -50 11 16 21 106 11 106 -2 0 -11 -25
-20 -56z"/>
<path d="M5481 7024 c-17 -26 -31 -51 -31 -55 0 -3 -15 -13 -32 -20 -18 -7
-39 -19 -46 -26 -7 -7 -21 -13 -31 -13 -10 0 -37 -13 -59 -30 -32 -23 -53 -30
-89 -31 -66 -1 -97 -12 -101 -33 -3 -15 0 -17 14 -11 11 4 62 16 114 26 52 11
103 24 112 29 10 6 33 10 52 10 24 0 39 7 50 21 9 13 21 19 30 16 27 -10 18
-37 -17 -52 -18 -7 -41 -23 -51 -34 -11 -12 -31 -21 -47 -21 -16 0 -32 -7 -38
-17 -6 -10 -11 -12 -11 -5 0 19 -34 14 -48 -8 -10 -17 -23 -20 -76 -20 -36 0
-68 -4 -71 -10 -9 -15 6 -110 18 -110 6 0 18 7 28 16 11 10 44 18 86 21 37 3
78 11 90 19 12 8 35 14 52 14 16 0 31 6 35 15 3 8 17 15 31 15 36 0 94 26 101
45 12 30 31 -26 23 -67 -5 -32 -3 -40 17 -53 13 -8 25 -11 28 -6 7 10 -17 134
-33 174 -10 25 -9 27 13 27 13 0 35 -12 49 -26 26 -26 26 -27 23 -160 -4 -111
-2 -134 10 -134 8 0 14 -4 14 -8 0 -16 37 -52 54 -52 9 0 16 -4 16 -10 0 -5
10 -10 22 -10 12 0 29 -7 39 -16 10 -9 25 -14 34 -11 17 7 21 27 5 27 -5 0
-10 18 -10 40 0 22 -4 40 -10 40 -15 0 -12 40 3 40 6 1 23 14 37 30 28 35 60
40 60 10 0 -29 33 -25 47 5 16 35 5 168 -18 223 -10 23 -31 58 -46 77 -23 29
-35 35 -83 40 -30 3 -77 11 -103 17 -46 10 -48 12 -45 41 2 22 -2 32 -12 34
-20 4 -51 -59 -39 -78 5 -8 9 -24 9 -37 0 -36 -34 -24 -38 13 -2 19 -18 43
-43 67 -22 20 -39 41 -39 45 1 4 -3 9 -8 11 -5 1 -24 -18 -41 -44z m93 -56
c15 -22 22 -78 10 -78 -19 0 -66 38 -70 57 -12 45 33 61 60 21z m349 -102 c3
-8 0 -22 -8 -32 -11 -16 -9 -23 16 -55 42 -54 19 -90 -49 -74 -69 16 -89 67
-37 95 14 7 25 20 25 27 0 40 41 70 53 39z m-153 -27 c0 -7 -10 -9 -25 -7 -27
6 -34 -6 -9 -16 20 -8 15 -51 -6 -51 -9 0 -16 11 -18 27 -2 16 -11 30 -23 33
-36 12 -19 25 31 25 30 0 50 -4 50 -11z m-200 -35 c0 -2 -7 -4 -15 -4 -8 0
-15 4 -15 10 0 5 7 7 15 4 8 -4 15 -8 15 -10z m190 -88 c15 -17 20 -31 16 -43
-7 -17 -9 -16 -27 6 -10 12 -16 27 -13 32 3 5 0 9 -5 9 -6 0 -11 5 -11 10 0
17 15 11 40 -14z m3 -98 c13 -17 17 -33 12 -47 l-7 -22 -18 20 c-9 12 -22 21
-28 21 -18 0 -24 18 -12 40 14 25 27 22 53 -12z"/>
<path d="M1656 7045 c-23 -24 -21 -26 24 -19 28 5 40 3 40 -5 0 -7 5 -9 10 -6
18 11 11 25 -13 25 -13 0 -28 5 -34 11 -7 7 -15 5 -27 -6z"/>
<path d="M2017 7054 c-10 -10 15 -53 28 -48 18 7 29 -14 15 -30 -14 -18 18
-78 45 -82 11 -2 25 -11 32 -20 19 -26 28 -8 15 29 -7 19 -12 39 -12 45 0 19
38 14 60 -8 11 -11 30 -20 42 -20 18 0 91 -41 108 -61 14 -16 40 -17 49 -2 8
14 1 20 -37 33 -29 9 -51 23 -56 36 -6 14 -28 28 -60 38 -28 9 -69 25 -91 36
-36 17 -37 19 -10 14 l30 -5 -25 15 c-28 17 -64 21 -55 6 10 -16 -8 -11 -35
10 -27 21 -33 23 -43 14z m90 -109 c8 -22 -6 -33 -17 -15 -13 20 -12 30 0 30
6 0 13 -7 17 -15z"/>
<path d="M2180 7050 c8 -5 24 -10 35 -10 17 0 17 2 5 10 -8 5 -24 10 -35 10
-17 0 -17 -2 -5 -10z"/>
<path d="M1626 7008 c5 -7 -1 -9 -14 -6 -15 4 -22 2 -22 -8 0 -8 -4 -14 -10
-14 -5 0 -15 -10 -21 -22 -11 -20 -8 -19 21 5 18 16 39 26 46 23 8 -3 23 -2
34 2 18 7 17 9 -10 19 -21 8 -28 8 -24 1z"/>
<path d="M2010 6981 c19 -36 13 -44 -32 -38 -24 3 -35 3 -25 0 9 -2 17 -9 17
-14 0 -5 16 -9 35 -9 19 0 35 3 35 7 0 17 -25 73 -32 73 -5 0 -4 -9 2 -19z"/>
<path d="M1710 6980 c0 -5 5 -10 11 -10 8 0 8 -5 -1 -15 -10 -12 -10 -15 3
-15 19 0 29 24 14 39 -14 14 -27 14 -27 1z"/>
<path d="M1960 6981 c0 -5 7 -11 15 -15 8 -3 15 -1 15 3 0 5 -7 11 -15 15 -8
3 -15 1 -15 -3z"/>
<path d="M1757 6944 c-14 -14 -7 -44 10 -44 19 0 86 22 93 31 3 3 12 9 20 13
8 3 0 4 -18 1 -18 -2 -40 -12 -48 -20 -21 -20 -33 -19 -42 5 -4 12 -11 18 -15
14z"/>
<path d="M2371 6934 c0 -11 3 -14 6 -6 3 7 2 16 -1 19 -3 4 -6 -2 -5 -13z"/>
<path d="M2455 6910 c3 -5 14 -10 23 -10 15 0 15 2 2 10 -20 13 -33 13 -25 0z"/>
<path d="M1597 6874 c-15 -31 -16 -36 -2 -31 8 4 26 2 40 -3 15 -6 34 -6 49 0
27 10 69 2 60 -11 -3 -5 -19 -9 -36 -9 -26 0 -29 -2 -18 -15 7 -8 17 -15 23
-15 5 0 15 -7 22 -16 10 -15 13 -15 27 0 9 9 31 16 49 16 40 0 27 17 -16 22
-20 2 -30 9 -30 20 0 25 -15 35 -60 41 -22 3 -34 3 -27 0 23 -9 12 -23 -18
-23 -33 0 -39 14 -12 29 15 9 15 12 2 21 -25 16 -34 11 -53 -26z"/>
<path d="M1570 6890 c0 -5 5 -10 11 -10 5 0 7 5 4 10 -3 6 -8 10 -11 10 -2 0
-4 -4 -4 -10z"/>
<path d="M2100 6854 c0 -8 5 -12 10 -9 6 3 10 10 10 16 0 5 -4 9 -10 9 -5 0
-10 -7 -10 -16z"/>
<path d="M1420 6835 c-19 -22 -10 -23 30 -3 33 17 34 18 9 18 -15 0 -32 -7
-39 -15z"/>
<path d="M1941 6830 c24 -41 23 -41 88 -24 34 8 69 13 77 10 8 -3 14 -1 14 5
0 6 5 7 10 4 6 -3 10 1 10 9 0 18 -16 21 -25 6 -7 -12 -55 -14 -55 -2 0 4 -29
7 -64 7 -55 0 -63 -2 -55 -15z"/>
<path d="M1142 6808 c-13 -13 -16 -38 -4 -38 4 0 15 12 25 25 13 19 15 25 4
25 -7 0 -18 -5 -25 -12z"/>
<path d="M1416 6791 c-6 -10 -3 -18 10 -28 16 -12 17 -16 6 -34 -20 -31 -7
-34 17 -3 21 27 20 44 -4 44 -7 0 -15 8 -17 18 -3 14 -5 14 -12 3z"/>
<path d="M2113 6775 c-6 -14 -7 -25 -2 -25 11 0 22 25 17 39 -1 6 -8 -1 -15
-14z"/>
<path d="M1290 6760 c0 -5 6 -10 14 -10 8 0 18 5 21 10 3 6 -3 10 -14 10 -12
0 -21 -4 -21 -10z"/>
<path d="M2067 6736 c-3 -8 1 -17 10 -20 23 -9 28 1 10 18 -13 13 -16 13 -20
2z"/>
<path d="M1041 6709 c-58 -37 -70 -49 -43 -43 11 3 41 -4 67 -15 36 -16 51
-18 61 -10 10 8 14 8 14 0 0 -6 -4 -11 -10 -11 -5 0 -7 -7 -4 -15 7 -16 64
-21 64 -5 0 5 -9 14 -20 20 -11 6 -20 17 -20 25 0 10 -10 15 -27 15 -16 0 -36
7 -46 15 -18 13 -18 14 2 27 21 13 28 29 14 27 -5 0 -28 -14 -52 -30z"/>
<path d="M1213 6710 c-26 -20 -29 -30 -10 -30 12 0 42 38 35 45 -2 2 -13 -5
-25 -15z"/>
<path d="M1387 6676 c-15 -11 -16 -23 -11 -70 6 -48 4 -56 -10 -56 -9 0 -16
-4 -16 -10 0 -5 6 -10 14 -10 20 0 49 99 34 117 -6 8 -8 17 -4 21 4 4 14 -2
22 -12 17 -24 25 -18 17 12 -6 25 -20 27 -46 8z"/>
<path d="M1472 6645 l-22 -25 26 0 c23 0 25 -3 20 -25 -6 -23 -3 -25 24 -25
16 0 30 5 30 10 0 6 -8 10 -17 10 -14 0 -15 2 -4 9 17 11 5 32 -14 24 -14 -5
-19 6 -16 35 3 18 -3 15 -27 -13z"/>
<path d="M5490 6650 c0 -7 24 -20 36 -20 13 0 1 19 -16 23 -11 3 -20 2 -20 -3z"/>
<path d="M5344 6630 c-12 -4 -24 -16 -28 -25 -5 -14 -14 -16 -46 -11 -32 5
-40 3 -40 -9 0 -12 13 -15 60 -15 33 0 60 4 60 10 0 6 23 10 50 10 50 0 55 4
44 34 -7 18 -63 21 -100 6z"/>
<path d="M1066 6574 c-9 -23 -8 -24 14 -24 11 0 20 5 20 10 0 6 7 10 15 10 8
0 15 5 15 10 0 17 -57 12 -64 -6z"/>
<path d="M1150 6580 c0 -5 4 -10 9 -10 5 0 13 -9 16 -20 3 -11 13 -20 22 -20
10 0 13 6 9 16 -3 9 -6 18 -6 20 0 2 -7 4 -15 4 -8 0 -15 5 -15 10 0 6 -4 10
-10 10 -5 0 -10 -4 -10 -10z"/>
<path d="M1270 6570 c0 -24 6 -25 26 -6 19 20 18 26 -6 26 -13 0 -20 -7 -20
-20z"/>
<path d="M1020 6564 c0 -9 31 -37 36 -32 9 9 -8 38 -22 38 -8 0 -14 -3 -14 -6z"/>
<path d="M5131 6548 c0 -13 3 -17 6 -10 2 6 15 12 28 12 13 0 25 -6 28 -12 2
-7 7 -10 11 -7 16 15 -8 39 -40 39 -29 0 -34 -3 -33 -22z"/>
<path d="M5480 6564 c0 -3 7 -12 15 -20 13 -14 15 -13 15 5 0 12 -6 21 -15 21
-8 0 -15 -3 -15 -6z"/>
<path d="M1110 6536 c0 -21 11 -46 20 -46 12 0 20 28 14 45 -8 19 -34 20 -34
1z"/>
<path d="M940 6499 c-14 -16 -30 -29 -36 -29 -7 0 -15 -7 -18 -16 -9 -24 -7
-29 6 -16 7 7 20 12 29 12 10 0 21 9 24 20 3 11 15 20 26 20 22 0 24 6 6 24
-10 11 -17 8 -37 -15z"/>
<path d="M1010 6520 c0 -5 5 -10 10 -10 6 0 10 5 10 10 0 6 -4 10 -10 10 -5 0
-10 -4 -10 -10z"/>
<path d="M1070 6520 c0 -5 -7 -10 -15 -10 -19 0 -19 -7 -1 -26 22 -22 33 -17
33 16 0 17 -4 30 -9 30 -4 0 -8 -4 -8 -10z"/>
<path d="M1220 6520 c0 -5 -7 -10 -15 -10 -8 0 -15 -4 -15 -10 0 -5 -7 -10
-16 -10 -11 0 -14 -6 -10 -22 3 -13 3 -17 0 -10 -3 6 -21 12 -41 12 -27 0 -34
-4 -31 -17 2 -14 14 -18 44 -19 22 0 47 -4 54 -9 10 -6 12 0 7 28 -5 32 -3 37
14 37 12 0 19 7 19 20 0 11 -2 20 -5 20 -3 0 -5 -4 -5 -10z"/>
<path d="M1260 6510 c0 -11 5 -20 10 -20 6 0 10 5 10 10 0 6 9 10 20 10 11 0
20 5 20 10 0 6 -13 10 -30 10 -23 0 -30 -4 -30 -20z"/>
<path d="M1090 6500 c0 -5 5 -10 10 -10 6 0 10 5 10 10 0 6 -4 10 -10 10 -5 0
-10 -4 -10 -10z"/>
<path d="M5340 6500 c0 -6 -30 -10 -70 -10 -40 0 -70 -4 -70 -10 0 -5 -11 -10
-25 -10 -28 0 -33 -15 -9 -24 21 -8 84 3 84 15 0 5 29 9 65 9 37 0 65 4 65 10
0 6 7 10 15 10 8 0 15 5 15 10 0 6 -16 10 -35 10 -19 0 -35 -4 -35 -10z"/>
<path d="M1010 6480 c0 -5 -11 -10 -25 -10 -24 0 -25 -2 -19 -40 4 -21 3 -60
0 -85 -6 -36 -11 -45 -27 -45 -10 0 -19 -7 -19 -15 0 -20 44 -20 64 1 9 8 16
19 16 24 0 5 11 20 25 34 14 14 25 32 25 41 0 9 -9 15 -25 15 -31 0 -33 22 -4
41 13 9 18 20 14 32 -8 18 -25 24 -25 7z"/>
<path d="M820 6460 c0 -5 5 -10 10 -10 6 0 10 5 10 10 0 6 -4 10 -10 10 -5 0
-10 -4 -10 -10z"/>
<path d="M1415 6440 c-3 -5 -1 -10 4 -10 6 0 11 5 11 10 0 6 -2 10 -4 10 -3 0
-8 -4 -11 -10z"/>
<path d="M2699 6421 c-21 -17 -24 -29 -30 -147 -7 -132 -21 -220 -39 -253 -5
-11 -9 -41 -9 -68 0 -26 -5 -73 -12 -103 -7 -30 -13 -73 -15 -95 -5 -87 -26
-275 -40 -360 -8 -49 -30 -211 -49 -360 -19 -148 -46 -344 -60 -435 -14 -91
-30 -228 -35 -305 -14 -196 -43 -394 -68 -480 -8 -25 -11 -27 -17 -12 -11 27
-35 21 -35 -10 0 -16 -3 -45 -6 -65 -6 -36 -5 -38 21 -38 l27 0 -7 -117 c-4
-65 -13 -143 -22 -173 -26 -97 -31 -133 -36 -245 -3 -60 -10 -123 -17 -140
-11 -28 -37 -190 -46 -285 -23 -246 -37 -367 -49 -435 -18 -96 -43 -291 -84
-640 -17 -143 -35 -291 -41 -330 -5 -38 -15 -117 -20 -175 -6 -58 -13 -119
-16 -137 -6 -39 1 -43 84 -54 37 -4 292 -38 567 -74 275 -36 527 -65 561 -65
l61 0 17 148 c9 81 23 192 31 247 8 55 26 190 40 300 14 110 30 227 35 260 18
116 28 191 34 245 4 30 8 69 11 85 2 17 7 50 9 75 3 25 17 135 31 245 14 110
35 270 46 355 27 209 30 230 40 230 5 0 6 6 3 14 -10 25 29 29 47 4 22 -29 36
-16 20 18 -7 17 -17 24 -26 20 -9 -3 -15 0 -15 9 0 8 -8 19 -17 24 -10 6 -16
11 -13 12 42 9 59 7 78 -11 27 -25 32 -25 32 0 0 15 7 20 29 20 16 0 34 -7 41
-15 7 -8 22 -15 34 -14 20 0 21 1 1 9 -17 7 -15 9 12 9 27 1 32 -3 38 -30 7
-30 -3 -56 -12 -31 -7 19 -22 14 -17 -6 3 -9 -4 -27 -16 -40 l-21 -22 29 0
c46 0 64 21 70 78 5 54 8 58 31 43 10 -7 12 -20 7 -50 -5 -33 -3 -41 9 -41 17
0 20 -16 5 -25 -13 -8 -13 -25 -1 -25 16 0 41 30 46 56 3 13 7 35 10 48 4 18
10 23 25 19 13 -4 19 -12 16 -22 -2 -9 -7 -37 -11 -63 -7 -53 -9 -52 80 -48
63 3 78 45 19 56 -28 5 -35 10 -32 28 3 19 8 21 68 18 36 -1 94 -6 130 -12 36
-5 117 -12 180 -15 63 -3 147 -10 186 -16 95 -15 119 -1 128 74 4 29 11 77 16
107 13 71 69 507 76 590 3 36 16 148 30 250 13 102 24 195 24 206 0 30 -40 39
-370 84 -41 5 -120 17 -175 25 -187 29 -230 34 -350 40 -143 7 -176 12 -228
32 l-39 16 6 106 c8 147 30 295 56 385 23 76 23 76 54 72 113 -17 106 -15 96
-42 -22 -57 -7 -100 43 -117 18 -7 24 -37 7 -37 -5 0 -10 5 -10 10 0 6 -14 10
-31 10 -29 0 -30 -2 -27 -37 3 -34 7 -39 41 -51 33 -10 43 -10 67 5 30 18 40
39 40 90 0 34 -18 58 -50 68 -11 3 -20 15 -20 26 0 23 15 25 24 3 4 -10 15
-14 33 -12 24 3 28 7 25 31 -3 27 -1 28 30 23 51 -9 260 -34 388 -47 63 -6
122 -12 130 -14 8 -1 41 -6 73 -9 31 -4 57 -12 57 -17 0 -5 7 -9 15 -9 8 0 15
-3 15 -7 0 -8 47 -33 62 -33 4 0 8 9 8 20 0 25 1 25 198 4 85 -9 155 -14 158
-12 2 3 15 101 29 219 14 118 38 318 55 444 17 127 35 271 41 320 18 154 18
155 39 155 24 0 24 3 6 39 -15 27 -14 28 10 23 26 -5 30 4 14 28 -6 10 -10 11
-10 3 0 -7 -4 -13 -10 -13 -5 0 -10 12 -10 28 0 27 -1 27 -71 29 -58 2 -501
57 -1559 193 -329 43 -1024 130 -1032 130 -3 0 -16 -8 -29 -19z m2286 -849
c17 -11 35 -97 35 -162 l0 -59 -36 3 c-51 4 -65 30 -40 75 10 18 11 34 3 62
-16 63 4 106 38 81z m-2183 -391 c-12 -7 -62 -4 -62 5 0 2 17 4 38 4 23 0 32
-3 24 -9z m-42 -126 c0 -2 -9 -9 -20 -15 -16 -9 -20 -8 -20 5 0 8 9 15 20 15
11 0 20 -2 20 -5z m199 -72 c-14 -16 -55 -17 -65 -2 -4 7 4 20 17 30 22 16 25
16 41 2 14 -12 15 -19 7 -30z m-237 -109 c-5 -26 -10 -30 -23 -17 -14 14 -3
46 14 40 6 -2 10 -13 9 -23z m1318 -103 c0 -12 -20 -25 -27 -18 -7 7 6 27 18
27 5 0 9 -4 9 -9z m-1073 -660 c10 -15 9 -20 -2 -24 -16 -7 -49 28 -41 42 9
14 29 5 43 -18z m323 -726 c0 -14 -4 -25 -10 -25 -11 0 -14 33 -3 43 11 11 13
8 13 -18z m-60 -5 c0 -5 -4 -10 -9 -10 -6 0 -13 5 -16 10 -3 6 1 10 9 10 9 0
16 -4 16 -10z m-26 -134 l40 -34 -42 -7 c-75 -12 -140 40 -79 65 34 14 40 12
81 -24z m-279 -226 c3 -5 -1 -10 -9 -10 -8 0 -18 5 -21 10 -3 6 1 10 9 10 8 0
18 -4 21 -10z m5 -62 c0 -7 -5 -20 -10 -28 -8 -12 -10 -9 -10 13 0 15 5 27 10
27 6 0 10 -6 10 -12z m438 -142 c3 -12 -1 -17 -10 -14 -7 3 -15 13 -16 22 -3
12 1 17 10 14 7 -3 15 -13 16 -22z m-429 -10 c34 -18 46 -33 55 -69 l7 -28
-61 33 c-55 30 -72 53 -53 71 10 10 21 9 52 -7z m276 -130 c-15 -20 -28 -36
-30 -36 -2 0 -1 9 4 57 1 10 39 23 50 17 1 -2 -9 -19 -24 -38z m119 19 c7 -19
-11 -19 -44 0 l-25 14 31 1 c19 0 34 -6 38 -15z m-623 -62 c-8 -15 -10 -15
-11 -2 0 17 10 32 18 25 2 -3 -1 -13 -7 -23z m124 -13 c0 -9 -8 -14 -20 -12
-35 5 -46 12 -40 23 10 15 60 7 60 -11z m420 -100 c5 0 -12 -15 -38 -34 -52
-37 -119 -55 -141 -37 -7 6 -16 8 -19 4 -4 -3 -7 13 -7 37 l0 43 98 -6 c53 -4
101 -7 107 -7z m-315 -40 c0 -5 -4 -10 -9 -10 -5 0 -18 -3 -28 -6 -16 -6 -16
-5 2 9 23 19 35 21 35 7z m-160 -25 c10 -12 10 -15 -4 -15 -9 0 -16 7 -16 15
0 8 2 15 4 15 2 0 9 -7 16 -15z m368 -139 c13 -24 40 -54 60 -67 30 -19 38
-31 40 -60 2 -27 -1 -38 -14 -43 -11 -4 -21 -1 -26 9 -5 8 -20 15 -33 15 -15
0 -31 10 -41 25 -9 14 -32 32 -50 41 -29 14 -34 22 -34 49 0 24 7 39 26 54 37
29 46 27 72 -23z m-198 3 c27 -49 -16 -66 -49 -20 -27 38 -27 41 9 41 19 0 33
-7 40 -21z m-252 -181 c-2 -6 -10 -14 -16 -16 -7 -2 -10 2 -6 12 7 18 28 22
22 4z m36 -204 c20 -19 22 -84 3 -84 -8 0 -24 11 -36 24 -41 44 -8 102 33 60z
m512 -156 c7 -12 -21 -38 -42 -38 -14 0 -27 28 -18 41 8 13 51 11 60 -3z m-62
-75 c4 -9 9 -42 13 -72 3 -31 6 -60 7 -66 0 -5 -6 -10 -14 -10 -8 0 -29 26
-47 58 -25 45 -30 63 -23 77 17 31 54 39 64 13z m-405 -64 c27 -71 18 -104
-32 -113 -40 -7 -77 6 -95 34 -18 29 15 112 48 121 47 14 61 6 79 -42z m263
-144 c0 -5 -5 -11 -11 -13 -6 -2 -11 4 -11 13 0 9 5 15 11 13 6 -2 11 -8 11
-13z m-402 -80 c0 -8 -4 -15 -9 -15 -13 0 -22 16 -14 24 11 11 23 6 23 -9z"/>
<path d="M5460 6430 c0 -5 7 -10 15 -10 8 0 15 5 15 10 0 6 -7 10 -15 10 -8 0
-15 -4 -15 -10z"/>
<path d="M6000 6425 c0 -16 22 -45 35 -45 3 0 5 12 3 27 -3 31 -38 47 -38 18z"/>
<path d="M730 6410 c0 -5 5 -10 10 -10 6 0 10 5 10 10 0 6 -4 10 -10 10 -5 0
-10 -4 -10 -10z"/>
<path d="M5370 6400 c0 -23 25 -27 46 -6 21 21 18 26 -16 26 -23 0 -30 -4 -30
-20z"/>
<path d="M6050 6410 c0 -5 5 -10 10 -10 6 0 10 5 10 10 0 6 -4 10 -10 10 -5 0
-10 -4 -10 -10z"/>
<path d="M720 6370 c0 -5 7 -10 15 -10 8 0 15 5 15 10 0 6 -7 10 -15 10 -8 0
-15 -4 -15 -10z"/>
<path d="M780 6352 c0 -7 -11 -12 -25 -12 -14 0 -25 -4 -25 -10 0 -5 5 -10 10
-10 6 0 10 -9 10 -20 0 -10 7 -23 16 -28 24 -13 -2 -62 -33 -62 -12 0 -23 -4
-23 -10 0 -5 14 -10 30 -10 21 0 30 5 30 16 0 20 24 44 44 44 28 0 28 20 -1
21 -15 0 -22 3 -15 6 21 8 13 23 -13 23 -14 0 -25 5 -25 10 0 6 4 10 9 10 11
0 24 31 16 38 -3 3 -5 0 -5 -6z"/>
<path d="M5850 6350 c0 -5 5 -10 10 -10 6 0 10 5 10 10 0 6 -4 10 -10 10 -5 0
-10 -4 -10 -10z"/>
<path d="M6111 6330 c0 -29 1 -32 10 -17 7 11 7 23 0 35 -9 14 -10 11 -10 -18z"/>
<path d="M5190 6320 c0 -24 25 -27 34 -4 9 23 8 24 -14 24 -13 0 -20 -7 -20
-20z"/>
<path d="M5886 6323 c4 -18 1 -23 -15 -23 -20 0 -22 -19 -12 -102 1 -5 7 -8
14 -8 7 0 19 -9 27 -20 15 -21 40 -27 40 -10 0 6 27 10 60 10 33 0 60 -4 60
-10 0 -5 -5 -10 -11 -10 -15 0 -37 -24 -41 -45 -4 -24 38 -30 81 -12 28 12 30
15 17 27 -9 7 -16 16 -16 21 0 15 22 10 35 -8 11 -15 14 -14 29 15 20 39 20
49 0 69 -8 9 -13 24 -11 34 3 12 0 19 -10 19 -8 0 -11 -5 -8 -11 10 -15 -15
-69 -32 -69 -8 0 -28 14 -43 30 -15 17 -33 30 -38 30 -6 0 -27 16 -46 35 -20
19 -45 35 -55 35 -11 0 -22 6 -25 13 -3 6 -3 2 0 -10z"/>
<path d="M880 6290 c0 -5 5 -10 10 -10 6 0 10 5 10 10 0 6 -4 10 -10 10 -5 0
-10 -4 -10 -10z"/>
<path d="M1142 6278 c2 -15 11 -24 27 -26 23 -4 23 -3 8 13 -10 9 -17 21 -17
26 0 5 -5 9 -11 9 -6 0 -9 -10 -7 -22z"/>
<path d="M5375 6230 c-3 -11 -13 -20 -21 -20 -8 0 -14 -4 -14 -10 0 -5 11 -10
25 -10 14 0 25 5 25 10 0 6 9 10 19 10 16 0 31 18 31 36 0 2 -13 4 -29 4 -21
0 -32 -6 -36 -20z"/>
<path d="M855 6210 c5 -14 2 -20 -9 -20 -20 0 -20 -4 -1 -39 16 -32 46 -44 80
-31 25 9 35 29 35 66 0 15 -6 24 -15 24 -8 0 -15 5 -15 10 0 6 -18 10 -41 10
-36 0 -40 -2 -34 -20z m75 -30 c0 -5 -13 -10 -30 -10 -16 0 -30 5 -30 10 0 6
14 10 30 10 17 0 30 -4 30 -10z"/>
<path d="M1220 6220 c0 -5 5 -10 10 -10 6 0 10 5 10 10 0 6 -4 10 -10 10 -5 0
-10 -4 -10 -10z"/>
<path d="M676 6195 c-9 -26 -7 -32 5 -12 6 10 9 21 6 23 -2 3 -7 -2 -11 -11z"/>
<path d="M5270 6200 c0 -5 5 -10 10 -10 6 0 10 5 10 10 0 6 -4 10 -10 10 -5 0
-10 -4 -10 -10z"/>
<path d="M960 6106 c0 -2 9 -6 20 -9 11 -3 20 -1 20 4 0 5 -9 9 -20 9 -11 0
-20 -2 -20 -4z"/>
<path d="M6924 6075 c-3 -8 -4 -20 -2 -27 3 -7 7 -1 10 15 6 29 1 36 -8 12z"/>
<path d="M1040 6070 c0 -5 5 -10 10 -10 6 0 10 5 10 10 0 6 -4 10 -10 10 -5 0
-10 -4 -10 -10z"/>
<path d="M5977 6053 c3 -21 1 -33 -6 -33 -15 0 -13 -71 3 -92 14 -20 61 -24
71 -8 4 6 1 17 -5 25 -7 8 -10 21 -7 29 10 27 -12 86 -33 86 -10 0 -21 6 -23
13 -3 6 -3 -3 0 -20z"/>
<path d="M6946 6024 c-16 -43 -13 -44 139 -44 90 0 145 -4 145 -10 0 -5 16
-10 35 -10 19 0 35 5 35 10 0 6 16 10 35 10 19 0 35 -4 35 -10 0 -6 35 -10 84
-10 67 0 85 3 90 16 9 24 -19 44 -63 44 -23 0 -41 5 -41 10 0 6 -7 10 -15 10
-8 0 -15 -4 -15 -10 0 -5 -13 -10 -30 -10 -16 0 -30 5 -30 10 0 6 -52 10 -135
10 -83 0 -135 -4 -135 -10 0 -5 -13 -10 -30 -10 -16 0 -30 5 -30 10 0 17 -67
12 -74 -6z"/>
<path d="M5410 6010 c0 -5 9 -10 20 -10 11 0 20 5 20 10 0 6 -9 10 -20 10 -11
0 -20 -4 -20 -10z"/>
<path d="M7580 6006 c0 -8 -3 -21 -6 -30 -5 -13 2 -16 35 -16 34 0 41 3 41 20
0 11 -7 20 -15 20 -8 0 -15 5 -15 10 0 6 -9 10 -20 10 -11 0 -20 -6 -20 -14z"/>
<path d="M6896 5984 c-3 -9 -6 -23 -6 -32 0 -21 15 -5 25 26 7 25 -9 31 -19 6z"/>
<path d="M5430 5946 c0 -2 8 -10 18 -17 15 -13 16 -12 3 4 -13 16 -21 21 -21
13z"/>
<path d="M5535 5920 c-3 -5 1 -10 10 -10 9 0 13 5 10 10 -3 6 -8 10 -10 10 -2
0 -7 -4 -10 -10z"/>
<path d="M6328 5743 c7 -3 16 -2 19 1 4 3 -2 6 -13 5 -11 0 -14 -3 -6 -6z"/>
<path d="M5710 5730 c0 -5 5 -10 10 -10 6 0 10 5 10 10 0 6 -4 10 -10 10 -5 0
-10 -4 -10 -10z"/>
<path d="M600 5710 c0 -5 -9 -10 -20 -10 -11 0 -20 -4 -20 -10 0 -15 29 -12
46 4 16 17 18 26 4 26 -5 0 -10 -4 -10 -10z"/>
<path d="M690 5690 c0 -5 6 -10 14 -10 7 0 16 -12 19 -26 4 -25 3 -26 -39 -22
-27 2 -43 -1 -41 -7 2 -6 48 -9 118 -8 63 2 109 1 103 -2 -18 -9 -1 -115 22
-132 37 -27 66 -13 100 49 21 38 29 60 22 64 -14 9 19 34 43 34 18 0 29 18 22
38 -5 14 -33 16 -33 2 0 -17 -25 -11 -40 10 -11 15 -26 20 -62 20 -26 0 -48
-4 -48 -10 0 -6 -33 -10 -80 -10 -47 0 -80 4 -80 10 0 6 -9 10 -20 10 -11 0
-20 -4 -20 -10z m256 -92 c4 -6 2 -14 -4 -16 -6 -2 -8 -10 -5 -18 3 -9 -2 -14
-16 -14 -17 0 -21 6 -21 30 0 23 5 30 19 30 11 0 23 -5 27 -12z"/>
<path d="M6130 5580 c0 -5 -7 -10 -15 -10 -8 0 -15 -4 -15 -10 0 -5 5 -10 10
-10 6 0 10 -16 10 -35 0 -28 -4 -35 -19 -35 -14 0 -18 -5 -14 -20 3 -11 9 -20
14 -20 5 0 6 7 3 15 -4 8 -1 15 5 15 6 0 14 1 18 3 4 1 9 -13 10 -30 3 -35 -5
-41 -25 -21 -9 9 -12 5 -11 -17 0 -17 3 -24 6 -17 9 23 25 12 20 -13 -7 -39
30 -135 52 -135 3 0 6 15 6 34 0 19 -3 32 -6 30 -8 -5 -19 22 -18 44 0 12 2
13 6 3 5 -11 7 -11 14 0 6 10 9 11 9 2 0 -7 5 -13 10 -13 15 0 12 30 -6 47
-14 14 -13 17 13 29 25 13 28 19 28 61 0 28 -5 48 -13 51 -6 2 -12 12 -12 23
0 12 -7 19 -19 19 -11 0 -23 5 -26 10 -3 6 -13 10 -21 10 -8 0 -14 -4 -14 -10z
m44 -22 c26 -28 39 -128 16 -128 -18 0 -32 43 -27 81 4 34 2 39 -14 39 -10 0
-19 5 -19 10 0 14 29 12 44 -2z"/>
<path d="M6353 5583 c15 -2 37 -2 50 0 12 2 0 4 -28 4 -27 0 -38 -2 -22 -4z"/>
<path d="M6280 5560 c0 -5 11 -10 25 -10 18 0 25 -5 25 -20 0 -11 7 -20 15
-20 8 0 15 -7 15 -16 0 -11 8 -15 28 -13 39 4 49 -6 44 -41 -5 -36 -25 -48
-47 -30 -8 7 -24 10 -34 7 -11 -3 -23 0 -26 7 -3 6 -3 -1 0 -16 4 -21 1 -28
-10 -28 -11 0 -15 12 -16 48 0 26 -4 56 -8 66 -7 19 -8 19 -15 1 -3 -10 -2
-23 4 -29 15 -15 12 -36 -5 -36 -9 0 -15 9 -15 25 0 14 -3 25 -7 25 -6 0 -8
-106 -4 -152 1 -4 17 -10 36 -14 25 -4 40 -15 50 -34 9 -18 26 -30 47 -35 62
-14 79 -14 75 -2 -3 7 -10 11 -16 10 -15 -4 -14 14 2 20 9 3 9 8 1 16 -11 12
-44 5 -44 -10 0 -5 -11 -9 -24 -9 -27 0 -43 28 -21 36 8 4 15 10 15 16 0 17
49 58 69 58 11 0 22 -9 26 -20 11 -33 35 -24 35 13 0 22 -3 28 -9 18 -14 -23
-22 19 -16 83 5 47 4 56 -9 56 -9 0 -16 -4 -16 -10 0 -19 -39 -10 -45 10 -4
13 -15 20 -31 20 -13 0 -24 5 -24 10 0 6 -16 10 -35 10 -19 0 -35 -4 -35 -10z
m54 -216 c4 -9 4 -19 1 -22 -3 -3 -5 0 -5 6 0 7 -9 12 -20 12 -11 0 -20 5 -20
10 0 17 37 11 44 -6z"/>
<path d="M5960 5498 c0 -15 25 -48 36 -48 5 0 -7 22 -26 50 -8 13 -10 13 -10
-2z"/>
<path d="M538 5463 c10 -16 17 -35 14 -43 -4 -11 -1 -10 12 3 17 16 17 19 2
42 -9 14 -23 25 -32 25 -13 0 -12 -4 4 -27z"/>
<path d="M205 5470 c3 -5 8 -10 11 -10 2 0 4 5 4 10 0 6 -5 10 -11 10 -5 0 -7
-4 -4 -10z"/>
<path d="M6497 5464 c-4 -4 -7 -14 -7 -23 0 -11 3 -12 11 -4 6 6 10 16 7 23
-2 6 -7 8 -11 4z"/>
<path d="M7034 5443 c2 -10 7 -28 11 -40 3 -13 13 -23 21 -23 11 0 14 6 9 23
-4 12 -9 30 -11 40 -3 9 -12 17 -20 17 -10 0 -14 -6 -10 -17z"/>
<path d="M470 5318 c0 -19 2 -20 10 -8 13 19 13 30 0 30 -5 0 -10 -10 -10 -22z"/>
<path d="M6227 5303 c-9 -15 -1 -108 12 -130 17 -33 35 -29 26 5 -4 15 -7 39
-6 54 0 30 -24 85 -32 71z"/>
<path d="M7240 5245 c-11 -13 -8 -15 14 -15 16 0 26 5 26 15 0 8 -6 15 -14 15
-7 0 -19 -7 -26 -15z"/>
<path d="M6325 5240 c-3 -5 3 -10 15 -10 12 0 18 5 15 10 -3 6 -10 10 -15 10
-5 0 -12 -4 -15 -10z"/>
<path d="M7075 5205 c4 -27 8 -62 11 -76 3 -17 -2 -31 -15 -43 -18 -16 -18
-20 -6 -33 19 -19 19 -67 0 -83 -24 -20 -19 -50 9 -50 13 0 31 -3 39 -6 13 -4
14 1 8 28 -11 46 -2 98 15 98 8 0 14 5 14 10 0 6 -6 10 -13 10 -8 0 -20 32
-31 84 -22 99 -40 135 -31 61z"/>
<path d="M532 5203 c-27 -30 -35 -35 -42 -23 -7 10 -10 11 -10 3 0 -7 -6 -13
-14 -13 -27 0 -23 -25 6 -37 16 -7 27 -17 23 -23 -3 -5 1 -10 9 -10 9 0 16 7
16 15 0 9 11 21 25 27 22 10 25 17 23 55 -2 24 -3 43 -3 43 0 0 -15 -17 -33
-37z"/>
<path d="M6370 5220 c0 -5 9 -10 20 -10 11 0 20 5 20 10 0 6 -9 10 -20 10 -11
0 -20 -4 -20 -10z"/>
<path d="M6420 5192 c0 -18 18 -42 30 -42 7 0 30 46 30 58 0 4 -5 0 -10 -8 -6
-10 -10 -11 -10 -2 0 6 -9 12 -20 12 -13 0 -20 -7 -20 -18z"/>
<path d="M7280 5183 c0 -18 5 -33 10 -33 13 0 13 30 0 50 -7 11 -10 7 -10 -17z"/>
<path d="M6921 5174 c0 -11 3 -14 6 -6 3 7 2 16 -1 19 -3 4 -6 -2 -5 -13z"/>
<path d="M6380 5135 c0 -5 5 -17 10 -25 5 -8 10 -10 10 -5 0 6 -5 17 -10 25
-5 8 -10 11 -10 5z"/>
<path d="M6890 5084 c0 -17 22 -14 28 4 2 7 -3 12 -12 12 -9 0 -16 -7 -16 -16z"/>
<path d="M6370 5050 c0 -5 5 -10 10 -10 6 0 10 5 10 10 0 6 -4 10 -10 10 -5 0
-10 -4 -10 -10z"/>
<path d="M2236 5013 c-12 -12 -6 -51 10 -57 24 -9 34 -7 34 7 0 18 -35 58 -44
50z"/>
<path d="M6881 4895 c0 -11 7 -36 15 -55 l14 -35 -4 44 c-4 44 -27 85 -25 46z"/>
<path d="M4726 4793 c-3 -3 -6 -19 -6 -34 0 -21 7 -29 28 -37 24 -8 29 -6 39
14 12 25 8 31 -33 52 -12 6 -24 8 -28 5z"/>
<path d="M4835 4790 c3 -5 8 -10 11 -10 2 0 4 5 4 10 0 6 -5 10 -11 10 -5 0
-7 -4 -4 -10z"/>
<path d="M4822 4681 c2 -7 7 -12 11 -12 12 1 9 15 -3 20 -7 2 -11 -2 -8 -8z"/>
<path d="M7572 4600 c0 -14 2 -19 5 -12 2 6 2 18 0 25 -3 6 -5 1 -5 -13z"/>
<path d="M7331 4594 c0 -11 3 -14 6 -6 3 7 2 16 -1 19 -3 4 -6 -2 -5 -13z"/>
<path d="M7500 4460 c0 -5 7 -7 15 -4 8 4 15 8 15 10 0 2 -7 4 -15 4 -8 0 -15
-4 -15 -10z"/>
<path d="M7620 4271 c0 -11 5 -23 10 -26 6 -3 10 -2 10 4 0 5 3 16 6 25 4 11
1 16 -10 16 -9 0 -16 -8 -16 -19z"/>
<path d="M7515 4229 c-11 -17 1 -21 15 -4 8 9 8 15 2 15 -6 0 -14 -5 -17 -11z"/>
<path d="M590 4124 c0 -8 5 -12 10 -9 6 3 10 10 10 16 0 5 -4 9 -10 9 -5 0
-10 -7 -10 -16z"/>
<path d="M1920 3923 c0 -7 -7 -13 -15 -13 -12 0 -15 -13 -14 -57 1 -86 15
-112 24 -45 8 53 8 54 36 48 26 -5 29 -3 29 19 0 18 -5 25 -20 25 -10 0 -24 8
-29 18 -6 9 -11 11 -11 5z"/>
<path d="M2090 3920 c0 -5 5 -10 10 -10 6 0 10 5 10 10 0 6 -4 10 -10 10 -5 0
-10 -4 -10 -10z"/>
<path d="M2086 3850 c-4 -19 -10 -52 -13 -72 l-5 -37 34 11 c28 8 33 14 33 41
0 27 4 32 28 35 20 3 27 9 27 25 -1 22 -1 22 -15 3 -8 -11 -15 -14 -15 -8 0 7
-13 12 -29 12 -16 0 -31 6 -34 13 -2 6 -7 -4 -11 -23z"/>
<path d="M6932 3720 c0 -14 2 -19 5 -12 2 6 2 18 0 25 -3 6 -5 1 -5 -13z"/>
<path d="M10 2488 c1 -106 19 -183 35 -145 4 9 2 37 -4 62 -6 24 -11 73 -11
109 0 36 -4 68 -10 71 -6 4 -10 -31 -10 -97z"/>
<path d="M10 2221 c0 -59 33 -133 56 -124 21 8 17 46 -11 107 -34 74 -45 78
-45 17z"/>
<path d="M6912 1825 c0 -16 2 -22 5 -12 2 9 2 23 0 30 -3 6 -5 -1 -5 -18z"/>
<path d="M5799 1093 c0 -11 -3 -13 -6 -5 -6 14 -59 16 -68 2 -4 -6 -11 -8 -16
-4 -11 6 -79 -36 -79 -48 0 -5 7 -8 15 -8 8 0 15 -4 15 -10 0 -5 7 -10 15 -10
8 0 15 -5 15 -11 0 -6 7 -9 15 -5 8 3 19 -3 25 -14 14 -26 13 -30 -11 -30 -15
0 -19 5 -15 15 6 15 -5 20 -18 8 -3 -4 -14 -8 -22 -9 -9 -1 -23 -5 -32 -9 -9
-4 -56 -7 -103 -7 -59 0 -104 -6 -145 -19 -88 -30 -179 -28 -304 5 -148 39
-225 26 -322 -54 -53 -44 -51 -75 9 -134 25 -25 50 -46 54 -46 5 0 27 -17 50
-39 l42 -38 -32 -19 c-17 -10 -31 -23 -31 -29 0 -6 -12 -11 -27 -10 -18 0 -31
-7 -38 -22 -7 -14 -16 -19 -24 -13 -11 6 -11 9 0 13 8 3 9 6 3 6 -5 1 -19 -6
-30 -14 -18 -13 -18 -14 -1 -15 15 0 16 -2 5 -14 -9 -10 -15 -10 -20 -3 -14
23 -48 -24 -48 -65 0 -33 -5 -42 -30 -56 -16 -9 -30 -24 -31 -32 0 -10 -3 -8
-8 5 -8 19 -8 19 -19 -2 -16 -28 -15 -43 1 -43 7 0 13 -10 14 -22 1 -11 7 -24
14 -28 6 -5 8 -16 4 -30 -6 -19 -4 -21 14 -15 16 5 21 2 21 -12 0 -15 2 -16
10 -3 7 11 10 7 10 -17 0 -23 -5 -33 -15 -33 -8 0 -15 -7 -15 -15 0 -8 5 -15
10 -15 6 0 10 -10 10 -22 -1 -21 -2 -20 -17 7 -10 17 -16 39 -15 50 1 11 -1
14 -4 8 -11 -25 -24 -13 -19 17 3 17 1 30 -5 30 -5 0 -9 3 -9 8 1 4 1 16 0 27
-1 15 -4 16 -13 7 -10 -10 -10 -17 -1 -31 7 -10 9 -28 6 -40 -4 -15 2 -28 17
-41 43 -37 28 -142 -17 -125 -7 2 -13 0 -13 -5 0 -6 30 -10 66 -10 65 0 65 0
63 27 -5 69 -4 71 53 64 4 -1 10 -17 14 -36 3 -20 15 -40 25 -45 24 -13 162
-13 154 0 -3 6 -1 10 4 10 6 0 11 -4 11 -10 0 -6 37 -10 90 -10 65 0 90 3 90
13 0 8 3 7 10 -3 13 -21 18 -10 13 27 -6 35 -39 55 -53 32 -7 -10 -11 -10 -24
0 -9 8 -16 19 -16 27 0 7 -9 18 -20 24 -11 6 -20 20 -20 30 0 13 7 20 20 20
11 0 20 -4 20 -10 0 -5 -8 -10 -17 -10 -15 0 -16 -2 -3 -10 20 -13 60 -13 60
1 0 5 -4 7 -10 4 -5 -3 -10 1 -10 9 0 21 6 20 30 -4 35 -35 60 -83 60 -116 0
-29 2 -31 44 -32 25 -1 48 2 51 8 4 7 12 7 25 0 11 -6 102 -10 214 -10 l195 0
4 38 4 37 1 -37 2 -38 85 0 c81 0 85 1 86 23 1 23 2 30 19 117 6 30 11 68 11
85 0 21 3 25 9 15 7 -11 10 -8 15 13 4 15 4 34 1 43 -5 13 0 15 34 9 26 -4 40
-3 40 4 0 6 7 11 15 11 10 0 15 10 14 33 0 30 -1 31 -11 10 -9 -19 -19 -23
-59 -23 -28 0 -49 -5 -53 -12 -2 -7 -3 -2 -1 12 2 14 4 28 4 33 1 4 10 7 22 7
16 0 20 -4 15 -18 -6 -16 -5 -16 8 1 7 9 19 17 27 17 8 0 20 4 27 9 11 6 10
11 -3 25 -23 22 -62 20 -75 -4 -14 -26 -30 -26 -30 1 0 11 -5 17 -10 14 -6 -4
-10 -3 -9 2 5 26 -4 42 -23 45 -19 2 -23 9 -23 38 -1 19 -8 46 -17 60 -9 14
-22 44 -29 68 -7 23 -18 47 -26 53 -7 6 -13 17 -13 23 0 7 -11 23 -26 36 -21
21 -27 22 -34 10 -8 -12 -10 -10 -10 8 0 12 -6 38 -14 57 -14 34 -14 34 15 40
16 4 29 11 29 15 0 5 16 12 35 16 20 3 40 15 46 25 5 11 16 19 23 19 23 0 47
49 53 104 5 49 4 53 -18 59 -44 12 -69 8 -70 -10z m-92 -43 c-3 -10 -2 -19 2
-18 12 4 51 -14 51 -23 0 -5 7 -9 15 -9 8 0 15 -4 15 -10 0 -18 -29 -11 -42
10 -8 12 -24 20 -39 20 -22 0 -27 4 -25 25 0 14 7 25 15 25 8 0 11 -7 8 -20z
m58 9 c4 -6 4 -13 0 -17 -3 -3 -10 0 -15 8 -8 13 -10 13 -10 1 0 -8 -3 -12 -6
-8 -7 7 4 27 16 27 5 0 12 -5 15 -11z m-126 -179 l-1 -25 -8 25 c-4 14 -8 32
-9 40 -1 13 0 13 9 0 5 -8 9 -26 9 -40z m45 5 c-4 -8 -8 -15 -10 -15 -2 0 -4
7 -4 15 0 8 4 15 10 15 5 0 7 -7 4 -15z m-6 -122 c-5 -26 -38 -29 -38 -4 0 15
6 21 21 21 14 0 19 -5 17 -17z m-228 -58 c-13 -15 2 -53 26 -68 8 -4 14 -12
14 -18 0 -5 -11 -2 -25 7 -14 9 -25 25 -25 35 0 10 -5 21 -11 25 -8 5 -6 10 5
16 9 5 16 17 17 26 0 11 2 12 6 4 3 -7 0 -19 -7 -27z m210 4 c0 -11 -3 -19 -7
-20 -5 0 -16 -2 -25 -4 -20 -4 -21 -1 -12 31 7 27 44 21 44 -7z m55 13 c-3 -3
-11 0 -18 7 -9 10 -8 11 6 5 10 -3 15 -9 12 -12z m-298 -98 c-3 -3 -12 -4 -19
-1 -8 3 -5 6 6 6 11 1 17 -2 13 -5z m58 -34 c17 -11 37 -32 44 -46 10 -23 10
-26 -2 -16 -10 8 -24 9 -48 2 -27 -8 -36 -7 -45 5 -6 8 -16 15 -23 15 -6 0
-11 4 -11 9 0 17 20 23 35 11 10 -8 15 -8 21 1 4 7 2 15 -4 17 -12 4 -17 22
-6 22 4 0 21 -9 39 -20z m259 5 c-4 -8 -13 -15 -21 -15 -13 0 -13 3 -3 15 7 8
16 15 21 15 5 0 6 -7 3 -15z m74 -29 c3 -12 -1 -17 -10 -14 -7 3 -15 13 -16
22 -3 12 1 17 10 14 7 -3 15 -13 16 -22z m-76 -8 c-7 -7 -12 -25 -12 -40 0
-31 -14 -36 -38 -12 -14 15 -17 15 -30 -2 -13 -18 -13 -17 -10 6 5 40 28 56
83 59 15 1 16 -2 7 -11z m58 -45 c0 -39 13 -55 41 -51 16 2 25 -2 27 -14 3
-14 -3 -18 -27 -18 -19 0 -31 5 -31 13 0 7 -9 23 -20 35 -20 21 -25 43 -13 55
14 14 23 6 23 -20z m-390 -13 c0 -5 8 -10 18 -11 13 0 12 -2 -5 -9 -13 -5 -23
-17 -23 -27 0 -16 2 -16 11 -3 8 11 12 12 16 3 7 -18 26 -16 19 2 -3 8 3 19
14 25 24 13 70 -6 71 -29 0 -11 2 -12 6 -3 6 16 43 -29 43 -52 0 -25 -39 -19
-50 7 -7 17 -9 18 -9 5 -1 -10 -5 -18 -10 -18 -5 0 -7 9 -4 20 4 16 0 20 -17
20 -13 0 -24 -8 -27 -20 -6 -23 -23 -27 -23 -6 0 14 -29 26 -67 26 -16 0 -23
6 -23 20 0 13 7 20 20 20 13 0 20 7 20 20 0 11 5 20 10 20 6 0 10 -4 10 -10z
m170 1 c0 -5 -7 -11 -14 -14 -10 -4 -13 -1 -9 9 6 15 23 19 23 5z m-810 -36
c4 3 6 -4 3 -15 -3 -11 -13 -20 -22 -19 -10 0 -11 2 -4 6 7 2 11 14 9 26 -1
12 -1 16 1 9 3 -7 8 -10 13 -7z m880 -7 c0 -19 -2 -20 -10 -8 -13 19 -13 30 0
30 6 0 10 -10 10 -22z m-41 -31 c1 -5 -3 -5 -9 -2 -5 3 -10 16 -9 28 0 21 1
21 9 2 5 -11 9 -24 9 -28z m-809 -19 c0 -16 -3 -19 -11 -11 -6 6 -8 16 -5 22
11 17 16 13 16 -11z m47 0 c-3 -8 -6 -5 -6 6 -1 11 2 17 5 13 3 -3 4 -12 1
-19z m513 -10 c28 -42 31 -58 12 -58 -17 0 -62 34 -62 46 0 7 24 33 30 34 3 0
12 -10 20 -22z m-483 -14 c-3 -3 -12 -4 -19 -1 -8 3 -5 6 6 6 11 1 17 -2 13
-5z m35 -19 c3 -13 2 -22 -3 -20 -4 3 -9 -3 -12 -12 -2 -10 -4 -1 -3 19 1 43
11 50 18 13z m-108 -21 c9 -24 2 -26 -12 -4 -7 11 -8 20 -3 20 5 0 12 -7 15
-16z m666 -20 c0 -7 -16 -16 -36 -20 -19 -4 -38 -13 -41 -20 -7 -19 -29 -18
-37 2 -4 9 -13 14 -22 10 -9 -3 -12 -2 -9 5 4 6 13 8 21 5 8 -3 14 0 15 7 0 9
2 9 6 0 2 -7 9 -13 14 -13 6 0 7 5 3 12 -5 7 -3 8 6 3 8 -5 18 -1 27 10 7 11
13 13 13 7 0 -7 5 -12 11 -12 6 0 9 7 6 14 -4 10 -1 13 9 9 7 -3 14 -11 14
-19z m-480 2 c0 -15 -18 -31 -26 -23 -7 7 7 37 17 37 5 0 9 -6 9 -14z m-35
-53 c-7 -17 -8 -17 -15 2 -5 11 -9 27 -9 35 -1 12 2 11 15 -2 11 -11 14 -23 9
-35z m93 19 c4 -25 -3 -28 -24 -8 -19 20 -18 38 4 34 9 -2 18 -13 20 -26z
m-288 -10 c18 37 26 28 22 -21 -2 -23 -8 -38 -13 -35 -5 3 -9 0 -9 -5 0 -6 -4
-11 -10 -11 -5 0 -10 9 -10 19 0 11 -4 22 -9 25 -4 3 -6 18 -3 33 l6 28 6 -30
7 -30 13 27z m440 -4 c0 -14 5 -18 15 -14 8 3 15 4 15 2 0 -3 3 -11 6 -20 4
-12 0 -16 -15 -16 -12 0 -21 6 -21 13 0 9 -2 9 -9 -1 -6 -10 -10 -4 -15 18 -3
18 -3 36 0 41 9 15 24 0 24 -23z m740 -4 c0 -9 -11 -14 -30 -14 -27 0 -29 2
-20 19 11 22 50 18 50 -5z m-1040 4 c0 -7 -7 -21 -14 -31 -16 -20 -26 -5 -18
26 5 19 32 24 32 5z m30 -4 c0 -8 -4 -12 -10 -9 -5 3 -10 10 -10 16 0 5 5 9
10 9 6 0 10 -7 10 -16z m624 0 c4 -11 1 -14 -11 -12 -9 2 -18 9 -21 16 -6 18
25 15 32 -4z m-619 -46 c6 -4 0 -8 -12 -8 -16 0 -21 4 -16 15 3 9 8 12 12 8 3
-4 11 -11 16 -15z m782 -40 c-3 -7 -5 -2 -5 12 0 14 2 19 5 13 2 -7 2 -19 0
-25z m-930 -10 c-3 -7 -5 -2 -5 12 0 14 2 19 5 13 2 -7 2 -19 0 -25z m118 10
c6 -4 2 -8 -7 -8 -10 0 -18 7 -18 17 0 9 3 12 8 7 4 -5 12 -12 17 -16z m85 13
c0 -5 7 -17 16 -26 9 -9 14 -19 10 -22 -6 -6 -45 36 -46 50 0 4 5 7 10 7 6 0
10 -4 10 -9z m210 -6 c0 -8 -4 -15 -10 -15 -5 0 -7 7 -4 15 4 8 8 15 10 15 2
0 4 -7 4 -15z"/>
<path d="M2220 671 c0 -10 24 -21 47 -21 13 0 13 2 -1 15 -16 16 -46 20 -46 6z"/>
<path d="M4415 353 c3 -7 1 -13 -4 -13 -6 0 -11 -6 -11 -13 0 -7 -13 -24 -30
-39 -25 -22 -30 -34 -30 -72 0 -34 4 -46 15 -46 10 0 13 -10 11 -35 -5 -51
-12 -52 -29 -3 l-15 43 -1 -35 c-1 -42 7 -55 36 -62 15 -4 20 -2 17 7 -3 7 2
19 10 28 8 8 12 17 9 21 -3 3 3 14 14 23 21 19 53 78 53 99 0 7 4 14 10 16 12
4 1 48 -12 48 -5 0 -19 10 -30 23 -11 12 -17 16 -13 10z"/>
<path d="M4450 350 c0 -5 5 -10 11 -10 5 0 7 5 4 10 -3 6 -8 10 -11 10 -2 0
-4 -4 -4 -10z"/>
<path d="M4510 325 c0 -8 5 -15 10 -15 6 0 10 7 10 15 0 8 -4 15 -10 15 -5 0
-10 -7 -10 -15z"/>
<path d="M4540 304 c0 -8 5 -12 10 -9 6 4 8 11 5 16 -9 14 -15 11 -15 -7z"/>
<path d="M4252 223 l-31 -37 22 -14 c45 -30 49 -43 21 -69 -14 -12 -30 -23
-36 -23 -6 0 -17 -8 -24 -17 -7 -10 -14 -13 -14 -6 0 12 -30 10 -52 -3 -7 -5
-19 -9 -28 -10 -8 -1 -53 -11 -100 -21 l-85 -18 83 -3 c58 -2 89 1 100 10 12
10 14 10 8 1 -5 -10 6 -13 48 -13 49 0 55 2 59 23 l4 22 2 -22 c1 -19 7 -23
32 -23 53 0 60 16 43 101 -9 40 -14 92 -12 116 2 24 1 43 -2 43 -3 0 -20 -17
-38 -37z"/>
<path d="M4478 223 c7 -3 16 -2 19 1 4 3 -2 6 -13 5 -11 0 -14 -3 -6 -6z"/>
<path d="M4521 198 c-11 -29 -8 -32 23 -24 18 4 23 11 19 26 -7 27 -32 25 -42
-2z"/>
<path d="M4555 89 c-4 -22 -4 -43 -1 -46 3 -4 6 3 6 15 0 23 14 29 25 12 7
-11 25 -4 25 9 0 9 -35 51 -43 51 -3 0 -8 -18 -12 -41z"/>
<path d="M5931 108 c0 -7 4 -22 9 -33 7 -17 9 -15 9 13 1 17 -3 32 -9 32 -5 0
-10 -6 -9 -12z"/>
<path d="M4448 105 c-3 -3 -4 -15 -1 -26 4 -15 8 -17 19 -8 15 13 19 34 5 25
-5 -4 -11 -1 -13 5 -2 5 -6 7 -10 4z"/>
<path d="M2550 75 c0 -17 26 -55 37 -55 8 0 11 -5 8 -10 -4 -6 5 -10 20 -10
l26 0 -21 30 c-12 17 -25 28 -30 25 -4 -3 -10 2 -14 10 -5 13 -26 22 -26 10z"/>
<path d="M2485 60 c3 -5 15 -10 26 -10 11 0 17 5 14 10 -3 6 -15 10 -26 10
-11 0 -17 -4 -14 -10z"/>
<path d="M4328 55 c-8 -8 3 -55 13 -55 5 0 6 12 3 28 -8 32 -9 34 -16 27z"/>
<path d="M4388 27 c-4 -19 -1 -27 8 -27 15 0 16 6 5 35 -7 17 -8 17 -13 -8z"/>
<path d="M4741 34 c0 -11 3 -14 6 -6 3 7 2 16 -1 19 -3 4 -6 -2 -5 -13z"/>
<path d="M5931 34 c0 -11 3 -14 6 -6 3 7 2 16 -1 19 -3 4 -6 -2 -5 -13z"/>
<path d="M1847 9 c7 -7 15 -10 18 -7 3 3 -2 9 -12 12 -14 6 -15 5 -6 -5z"/>
<path d="M2460 9 c0 -5 19 -9 42 -9 23 0 38 3 35 6 -10 11 -77 13 -77 3z"/>
</g>
</svg>
